<svg version="1.2" xmlns="http://www.w3.org/2000/svg" viewBox="0 0 1920 1280" width="1920" height="1280">
	<defs>
		<linearGradient id="g1" x2="1" gradientUnits="userSpaceOnUse" gradientTransform="matrix(285.805,-285.805,125.116,125.116,-227.1,110.253)">
			<stop offset="0" stop-color="#ff4f66"/>
			<stop offset=".424" stop-color="#c22b3f"/>
			<stop offset="1" stop-color="#ff4f66"/>
		</linearGradient>
	</defs>
	<style>
		.s0 { fill: #f2f2f2 } 
		.s1 { fill: none;stroke: #ff4f66;stroke-miterlimit:10;stroke-width: .6 } 
		.s2 { fill: #e5e5e5 } 
		.s3 { fill: #ff4f66 } 
		.s4 { fill: #4a4f52 } 
		.s5 { fill: none;stroke: #b9bcc3;stroke-miterlimit:10;stroke-width: 1.3 } 
		.s6 { fill: url(#g1) } 
		.s7 { fill: none;stroke: #ff4f66;stroke-miterlimit:10;stroke-width: 2.6 } 
	</style>
	<g id="BACKGROUND">
		<path id="&lt;Path&gt;" fill-rule="evenodd" class="s0" d="m1920 0v1280h-1920v-1280z"/>
	</g>
	<g id="OBJECTS">
		<g id="&lt;Group&gt;">
			<g id="&lt;Group&gt;">
				<path id="&lt;Path&gt;" class="s1" d="m0 680.88l680.88-680.88"/>
				<path id="&lt;Path&gt;" class="s1" d="m0 643.97l643.97-643.97"/>
				<path id="&lt;Path&gt;" class="s1" d="m0 607.06l607.06-607.06"/>
				<path id="&lt;Path&gt;" class="s1" d="m0 570.16l570.15-570.16"/>
				<path id="&lt;Path&gt;" class="s1" d="m0 533.25l533.25-533.25"/>
			</g>
			<path id="&lt;Path&gt;" class="s2" d="m1442.89 0h-182.16l659.27 659.27v-182.15z"/>
			<path id="&lt;Path&gt;" class="s2" d="m0 893.47l386.53 386.53h-386.53z"/>
			<path id="&lt;Path&gt;" class="s3" d="m859.59 1280l-148.63-148.62-148.62 148.62z"/>
			<path id="&lt;Path&gt;" class="s4" d="m908.94 0l86.43 86.43 86.43-86.43z"/>
			<path id="&lt;Path&gt;" class="s3" d="m1658.96 740.65l-154.09-154.1 154.09-154.08 154.09 154.08z"/>
			<path id="&lt;Path&gt;" class="s4" d="m1435.91 593.6l-71.67-71.68 71.67-71.67 71.68 71.67z"/>
			<path id="&lt;Path&gt;" class="s4" d="m1920 436.11v-176.07l-260.03-260.04h-176.08z"/>
			<path id="&lt;Path&gt;" class="s3" d="m1920 47.82v-47.82h-100.61l-270.47 270.47-270.46-270.47h-148.44l418.9 418.9z"/>
			<g id="&lt;Group&gt;" style="opacity: .6;mix-blend-mode: multiply">
				<path id="&lt;Path&gt;" class="s5" d="m1920 508.97l-508.97-508.97"/>
				<path id="&lt;Path&gt;" class="s5" d="m1920 532.21l-532.21-532.21"/>
				<path id="&lt;Path&gt;" class="s5" d="m1920 555.45l-555.44-555.45"/>
				<path id="&lt;Path&gt;" class="s5" d="m1920 578.68l-578.68-578.68"/>
				<path id="&lt;Path&gt;" class="s5" d="m1920 601.92l-601.92-601.92"/>
			</g>
			<path id="&lt;Path&gt;" class="s4" d="m1586.37 1097.48l333.63-333.63v-202.75l-536.37 536.38 182.53 182.52h202.73z"/>
			<path id="&lt;Path&gt;" class="s4" d="m0 839.9l288.11 288.12-151.98 151.98h195.5l151.98-151.98-483.61-483.62z"/>
			<path id="&lt;Path&gt;" class="s6" d="m0 361.46v148.44l406.27-406.27-103.63-103.63h-148.44l103.63 103.63z"/>
			<path id="&lt;Path&gt;" class="s3" d="m1782.38 1280l137.62-137.62v-185.53l-323.14 323.15z"/>
			<g id="&lt;Group&gt;">
				<path id="&lt;Path&gt;" fill-rule="evenodd" class="s3" d="m103.26 1043.4c-1.95 0-3.52-1.58-3.52-3.52 0-1.95 1.57-3.52 3.52-3.52 1.94 0 3.52 1.57 3.52 3.52 0 1.94-1.58 3.52-3.52 3.52z"/>
				<path id="&lt;Path&gt;" fill-rule="evenodd" class="s3" d="m103.26 1010.12c-1.95 0-3.52-1.58-3.52-3.52 0-1.95 1.57-3.52 3.52-3.52 1.94 0 3.52 1.57 3.52 3.52 0 1.94-1.58 3.52-3.52 3.52z"/>
				<path id="&lt;Path&gt;" fill-rule="evenodd" class="s3" d="m103.26 976.84c-1.95 0-3.52-1.58-3.52-3.52 0-1.95 1.57-3.52 3.52-3.52 1.94 0 3.52 1.57 3.52 3.52 0 1.94-1.58 3.52-3.52 3.52z"/>
				<path id="&lt;Path&gt;" fill-rule="evenodd" class="s3" d="m103.26 943.56c-1.95 0-3.52-1.58-3.52-3.52 0-1.95 1.57-3.52 3.52-3.52 1.94 0 3.52 1.57 3.52 3.52 0 1.94-1.58 3.52-3.52 3.52z"/>
				<path id="&lt;Path&gt;" fill-rule="evenodd" class="s3" d="m103.26 910.28c-1.95 0-3.52-1.58-3.52-3.52 0-1.95 1.57-3.52 3.52-3.52 1.94 0 3.52 1.57 3.52 3.52 0 1.94-1.58 3.52-3.52 3.52z"/>
				<path id="&lt;Path&gt;" fill-rule="evenodd" class="s3" d="m103.26 877c-1.95 0-3.52-1.58-3.52-3.52 0-1.95 1.57-3.52 3.52-3.52 1.94 0 3.52 1.57 3.52 3.52 0 1.94-1.58 3.52-3.52 3.52z"/>
				<path id="&lt;Path&gt;" fill-rule="evenodd" class="s3" d="m103.26 843.72c-1.95 0-3.52-1.58-3.52-3.52 0-1.95 1.57-3.52 3.52-3.52 1.94 0 3.52 1.57 3.52 3.52 0 1.94-1.58 3.52-3.52 3.52z"/>
				<path id="&lt;Path&gt;" fill-rule="evenodd" class="s3" d="m136.54 1043.4c-1.95 0-3.52-1.58-3.52-3.52 0-1.95 1.57-3.52 3.52-3.52 1.94 0 3.52 1.57 3.52 3.52 0 1.94-1.58 3.52-3.52 3.52z"/>
				<path id="&lt;Path&gt;" fill-rule="evenodd" class="s3" d="m136.54 1010.12c-1.95 0-3.52-1.58-3.52-3.52 0-1.95 1.57-3.52 3.52-3.52 1.94 0 3.52 1.57 3.52 3.52 0 1.94-1.58 3.52-3.52 3.52z"/>
				<path id="&lt;Path&gt;" fill-rule="evenodd" class="s3" d="m136.54 976.84c-1.95 0-3.52-1.58-3.52-3.52 0-1.95 1.57-3.52 3.52-3.52 1.94 0 3.52 1.57 3.52 3.52 0 1.94-1.58 3.52-3.52 3.52z"/>
				<path id="&lt;Path&gt;" fill-rule="evenodd" class="s3" d="m136.54 943.56c-1.95 0-3.52-1.58-3.52-3.52 0-1.95 1.57-3.52 3.52-3.52 1.94 0 3.52 1.57 3.52 3.52 0 1.94-1.58 3.52-3.52 3.52z"/>
				<path id="&lt;Path&gt;" fill-rule="evenodd" class="s3" d="m136.54 910.28c-1.95 0-3.52-1.58-3.52-3.52 0-1.95 1.57-3.52 3.52-3.52 1.94 0 3.52 1.57 3.52 3.52 0 1.94-1.58 3.52-3.52 3.52z"/>
				<path id="&lt;Path&gt;" fill-rule="evenodd" class="s3" d="m136.54 877c-1.95 0-3.52-1.58-3.52-3.52 0-1.95 1.57-3.52 3.52-3.52 1.94 0 3.52 1.57 3.52 3.52 0 1.94-1.58 3.52-3.52 3.52z"/>
				<path id="&lt;Path&gt;" fill-rule="evenodd" class="s3" d="m136.54 843.72c-1.95 0-3.52-1.58-3.52-3.52 0-1.95 1.57-3.52 3.52-3.52 1.94 0 3.52 1.57 3.52 3.52 0 1.94-1.58 3.52-3.52 3.52z"/>
				<path id="&lt;Path&gt;" fill-rule="evenodd" class="s3" d="m169.82 1043.4c-1.95 0-3.52-1.58-3.52-3.52 0-1.95 1.57-3.52 3.52-3.52 1.94 0 3.52 1.57 3.52 3.52 0 1.94-1.58 3.52-3.52 3.52z"/>
				<path id="&lt;Path&gt;" fill-rule="evenodd" class="s3" d="m169.82 1010.12c-1.95 0-3.52-1.58-3.52-3.52 0-1.95 1.57-3.52 3.52-3.52 1.94 0 3.52 1.57 3.52 3.52 0 1.94-1.58 3.52-3.52 3.52z"/>
				<path id="&lt;Path&gt;" fill-rule="evenodd" class="s3" d="m169.82 976.84c-1.95 0-3.52-1.58-3.52-3.52 0-1.95 1.57-3.52 3.52-3.52 1.94 0 3.52 1.57 3.52 3.52 0 1.94-1.58 3.52-3.52 3.52z"/>
				<path id="&lt;Path&gt;" fill-rule="evenodd" class="s3" d="m169.82 943.56c-1.95 0-3.52-1.58-3.52-3.52 0-1.95 1.57-3.52 3.52-3.52 1.94 0 3.52 1.57 3.52 3.52 0 1.94-1.58 3.52-3.52 3.52z"/>
				<path id="&lt;Path&gt;" fill-rule="evenodd" class="s3" d="m169.82 910.28c-1.95 0-3.52-1.58-3.52-3.52 0-1.95 1.57-3.52 3.52-3.52 1.94 0 3.52 1.57 3.52 3.52 0 1.94-1.58 3.52-3.52 3.52z"/>
				<path id="&lt;Path&gt;" fill-rule="evenodd" class="s3" d="m169.82 877c-1.95 0-3.52-1.58-3.52-3.52 0-1.95 1.57-3.52 3.52-3.52 1.94 0 3.52 1.57 3.52 3.52 0 1.94-1.58 3.52-3.52 3.52z"/>
				<path id="&lt;Path&gt;" fill-rule="evenodd" class="s3" d="m169.82 843.72c-1.95 0-3.52-1.58-3.52-3.52 0-1.95 1.57-3.52 3.52-3.52 1.94 0 3.52 1.57 3.52 3.52 0 1.94-1.58 3.52-3.52 3.52z"/>
				<path id="&lt;Path&gt;" fill-rule="evenodd" class="s3" d="m203.1 1043.4c-1.95 0-3.52-1.58-3.52-3.52 0-1.95 1.57-3.52 3.52-3.52 1.94 0 3.52 1.57 3.52 3.52 0 1.94-1.58 3.52-3.52 3.52z"/>
				<path id="&lt;Path&gt;" fill-rule="evenodd" class="s3" d="m203.1 1010.12c-1.95 0-3.52-1.58-3.52-3.52 0-1.95 1.57-3.52 3.52-3.52 1.94 0 3.52 1.57 3.52 3.52 0 1.94-1.58 3.52-3.52 3.52z"/>
				<path id="&lt;Path&gt;" fill-rule="evenodd" class="s3" d="m203.1 976.84c-1.95 0-3.52-1.58-3.52-3.52 0-1.95 1.57-3.52 3.52-3.52 1.94 0 3.52 1.57 3.52 3.52 0 1.94-1.58 3.52-3.52 3.52z"/>
				<path id="&lt;Path&gt;" fill-rule="evenodd" class="s3" d="m203.1 943.56c-1.95 0-3.52-1.58-3.52-3.52 0-1.95 1.57-3.52 3.52-3.52 1.94 0 3.52 1.57 3.52 3.52 0 1.94-1.58 3.52-3.52 3.52z"/>
				<path id="&lt;Path&gt;" fill-rule="evenodd" class="s3" d="m203.1 910.28c-1.95 0-3.52-1.58-3.52-3.52 0-1.95 1.57-3.52 3.52-3.52 1.94 0 3.52 1.57 3.52 3.52 0 1.94-1.58 3.52-3.52 3.52z"/>
				<path id="&lt;Path&gt;" fill-rule="evenodd" class="s3" d="m203.1 877c-1.95 0-3.52-1.58-3.52-3.52 0-1.95 1.57-3.52 3.52-3.52 1.94 0 3.52 1.57 3.52 3.52 0 1.94-1.58 3.52-3.52 3.52z"/>
				<path id="&lt;Path&gt;" fill-rule="evenodd" class="s3" d="m203.1 843.72c-1.95 0-3.52-1.58-3.52-3.52 0-1.95 1.57-3.52 3.52-3.52 1.94 0 3.52 1.57 3.52 3.52 0 1.94-1.58 3.52-3.52 3.52z"/>
				<path id="&lt;Path&gt;" fill-rule="evenodd" class="s3" d="m236.38 1043.4c-1.95 0-3.52-1.58-3.52-3.52 0-1.95 1.57-3.52 3.52-3.52 1.94 0 3.52 1.57 3.52 3.52 0 1.94-1.58 3.52-3.52 3.52z"/>
				<path id="&lt;Path&gt;" fill-rule="evenodd" class="s3" d="m236.38 1010.12c-1.95 0-3.52-1.58-3.52-3.52 0-1.95 1.57-3.52 3.52-3.52 1.94 0 3.52 1.57 3.52 3.52 0 1.94-1.58 3.52-3.52 3.52z"/>
				<path id="&lt;Path&gt;" fill-rule="evenodd" class="s3" d="m236.38 976.84c-1.95 0-3.52-1.58-3.52-3.52 0-1.95 1.57-3.52 3.52-3.52 1.94 0 3.52 1.57 3.52 3.52 0 1.94-1.58 3.52-3.52 3.52z"/>
				<path id="&lt;Path&gt;" fill-rule="evenodd" class="s3" d="m236.38 943.56c-1.95 0-3.52-1.58-3.52-3.52 0-1.95 1.57-3.52 3.52-3.52 1.94 0 3.52 1.57 3.52 3.52 0 1.94-1.58 3.52-3.52 3.52z"/>
				<path id="&lt;Path&gt;" fill-rule="evenodd" class="s3" d="m236.38 910.28c-1.95 0-3.52-1.58-3.52-3.52 0-1.95 1.57-3.52 3.52-3.52 1.94 0 3.52 1.57 3.52 3.52 0 1.94-1.58 3.52-3.52 3.52z"/>
				<path id="&lt;Path&gt;" fill-rule="evenodd" class="s3" d="m236.38 877c-1.95 0-3.52-1.58-3.52-3.52 0-1.95 1.57-3.52 3.52-3.52 1.94 0 3.52 1.57 3.52 3.52 0 1.94-1.58 3.52-3.52 3.52z"/>
				<path id="&lt;Path&gt;" fill-rule="evenodd" class="s3" d="m236.38 843.72c-1.95 0-3.52-1.58-3.52-3.52 0-1.95 1.57-3.52 3.52-3.52 1.94 0 3.52 1.57 3.52 3.52 0 1.94-1.58 3.52-3.52 3.52z"/>
			</g>
			<g id="&lt;Group&gt;">
				<path id="&lt;Path&gt;" fill-rule="evenodd" class="s4" d="m1559.04 593.6c-1.94 0-3.52-1.57-3.52-3.52 0-1.95 1.58-3.52 3.52-3.52 1.95 0 3.52 1.57 3.52 3.52 0 1.95-1.57 3.52-3.52 3.52z"/>
				<path id="&lt;Path&gt;" fill-rule="evenodd" class="s4" d="m1592.32 593.6c-1.94 0-3.52-1.57-3.52-3.52 0-1.95 1.58-3.52 3.52-3.52 1.95 0 3.52 1.57 3.52 3.52 0 1.95-1.57 3.52-3.52 3.52z"/>
				<path id="&lt;Path&gt;" fill-rule="evenodd" class="s4" d="m1625.6 593.6c-1.94 0-3.52-1.57-3.52-3.52 0-1.95 1.58-3.52 3.52-3.52 1.95 0 3.52 1.57 3.52 3.52 0 1.95-1.57 3.52-3.52 3.52z"/>
				<path id="&lt;Path&gt;" fill-rule="evenodd" class="s4" d="m1658.88 593.6c-1.94 0-3.52-1.57-3.52-3.52 0-1.95 1.58-3.52 3.52-3.52 1.95 0 3.52 1.57 3.52 3.52 0 1.95-1.57 3.52-3.52 3.52z"/>
				<path id="&lt;Path&gt;" fill-rule="evenodd" class="s4" d="m1559.04 626.88c-1.94 0-3.52-1.57-3.52-3.52 0-1.95 1.58-3.52 3.52-3.52 1.95 0 3.52 1.57 3.52 3.52 0 1.95-1.57 3.52-3.52 3.52z"/>
				<path id="&lt;Path&gt;" fill-rule="evenodd" class="s4" d="m1592.32 626.88c-1.94 0-3.52-1.57-3.52-3.52 0-1.95 1.58-3.52 3.52-3.52 1.95 0 3.52 1.57 3.52 3.52 0 1.95-1.57 3.52-3.52 3.52z"/>
				<path id="&lt;Path&gt;" fill-rule="evenodd" class="s4" d="m1625.6 626.88c-1.94 0-3.52-1.57-3.52-3.52 0-1.95 1.58-3.52 3.52-3.52 1.95 0 3.52 1.57 3.52 3.52 0 1.95-1.57 3.52-3.52 3.52z"/>
				<path id="&lt;Path&gt;" fill-rule="evenodd" class="s4" d="m1658.88 626.88c-1.94 0-3.52-1.57-3.52-3.52 0-1.95 1.58-3.52 3.52-3.52 1.95 0 3.52 1.57 3.52 3.52 0 1.95-1.57 3.52-3.52 3.52z"/>
				<path id="&lt;Path&gt;" fill-rule="evenodd" class="s4" d="m1559.04 660.16c-1.94 0-3.52-1.57-3.52-3.52 0-1.95 1.58-3.52 3.52-3.52 1.95 0 3.52 1.57 3.52 3.52 0 1.95-1.57 3.52-3.52 3.52z"/>
				<path id="&lt;Path&gt;" fill-rule="evenodd" class="s4" d="m1592.32 660.16c-1.94 0-3.52-1.57-3.52-3.52 0-1.95 1.58-3.52 3.52-3.52 1.95 0 3.52 1.57 3.52 3.52 0 1.95-1.57 3.52-3.52 3.52z"/>
				<path id="&lt;Path&gt;" fill-rule="evenodd" class="s4" d="m1625.6 660.16c-1.94 0-3.52-1.57-3.52-3.52 0-1.95 1.58-3.52 3.52-3.52 1.95 0 3.52 1.57 3.52 3.52 0 1.95-1.57 3.52-3.52 3.52z"/>
				<path id="&lt;Path&gt;" fill-rule="evenodd" class="s4" d="m1658.88 660.16c-1.94 0-3.52-1.57-3.52-3.52 0-1.95 1.58-3.52 3.52-3.52 1.95 0 3.52 1.57 3.52 3.52 0 1.95-1.57 3.52-3.52 3.52z"/>
				<path id="&lt;Path&gt;" fill-rule="evenodd" class="s4" d="m1559.04 693.44c-1.94 0-3.52-1.57-3.52-3.52 0-1.95 1.58-3.52 3.52-3.52 1.95 0 3.52 1.57 3.52 3.52 0 1.95-1.57 3.52-3.52 3.52z"/>
				<path id="&lt;Path&gt;" fill-rule="evenodd" class="s4" d="m1592.32 693.44c-1.94 0-3.52-1.57-3.52-3.52 0-1.95 1.58-3.52 3.52-3.52 1.95 0 3.52 1.57 3.52 3.52 0 1.95-1.57 3.52-3.52 3.52z"/>
				<path id="&lt;Path&gt;" fill-rule="evenodd" class="s4" d="m1625.6 693.44c-1.94 0-3.52-1.57-3.52-3.52 0-1.95 1.58-3.52 3.52-3.52 1.95 0 3.52 1.57 3.52 3.52 0 1.95-1.57 3.52-3.52 3.52z"/>
				<path id="&lt;Path&gt;" fill-rule="evenodd" class="s4" d="m1658.88 693.44c-1.94 0-3.52-1.57-3.52-3.52 0-1.95 1.58-3.52 3.52-3.52 1.95 0 3.52 1.57 3.52 3.52 0 1.95-1.57 3.52-3.52 3.52z"/>
			</g>
			<g id="&lt;Group&gt;">
				<path id="&lt;Path&gt;" class="s4" d="m1341.84 1161.11c-1.38-1.37-1.38-3.6 0-4.98 1.38-1.37 3.6-1.37 4.98 0 1.38 1.38 1.38 3.61 0 4.98-1.38 1.37-3.6 1.37-4.98 0z"/>
				<path id="&lt;Path&gt;" class="s4" d="m1318.31 1184.64c-1.38-1.37-1.38-3.6 0-4.98 1.37-1.37 3.6-1.37 4.97 0 1.38 1.38 1.38 3.61 0 4.98-1.37 1.38-3.6 1.38-4.97 0z"/>
				<path id="&lt;Path&gt;" class="s4" d="m1294.78 1208.18c-1.38-1.38-1.38-3.61 0-4.98 1.37-1.38 3.6-1.38 4.97 0 1.38 1.37 1.38 3.6 0 4.98-1.37 1.37-3.6 1.37-4.97 0z"/>
				<path id="&lt;Path&gt;" class="s4" d="m1271.24 1231.71c-1.37-1.38-1.37-3.61 0-4.98 1.38-1.37 3.6-1.37 4.98 0 1.37 1.37 1.38 3.6 0 4.98-1.38 1.37-3.6 1.37-4.98 0z"/>
				<path id="&lt;Path&gt;" class="s4" d="m1318.31 1137.58c-1.38-1.38-1.38-3.6 0-4.98 1.37-1.37 3.6-1.37 4.97 0 1.38 1.38 1.38 3.6 0 4.98-1.37 1.37-3.6 1.37-4.97 0z"/>
				<path id="&lt;Path&gt;" class="s4" d="m1294.78 1161.11c-1.38-1.37-1.38-3.6 0-4.98 1.37-1.37 3.6-1.37 4.97 0 1.38 1.38 1.38 3.61 0 4.98-1.37 1.37-3.6 1.37-4.97 0z"/>
				<path id="&lt;Path&gt;" class="s4" d="m1271.24 1184.64c-1.37-1.37-1.37-3.6 0-4.98 1.38-1.37 3.6-1.37 4.98 0 1.37 1.38 1.38 3.61 0 4.98-1.38 1.38-3.6 1.38-4.98 0z"/>
				<path id="&lt;Path&gt;" class="s4" d="m1247.71 1208.18c-1.38-1.38-1.38-3.61 0-4.98 1.37-1.38 3.6-1.38 4.98 0 1.37 1.37 1.37 3.6 0 4.98-1.38 1.37-3.61 1.37-4.98 0z"/>
				<path id="&lt;Path&gt;" class="s4" d="m1294.78 1114.04c-1.38-1.37-1.38-3.6 0-4.97 1.37-1.38 3.6-1.38 4.97 0 1.38 1.37 1.38 3.6 0 4.97-1.37 1.38-3.6 1.38-4.97 0z"/>
				<path id="&lt;Path&gt;" class="s4" d="m1271.24 1137.58c-1.37-1.38-1.37-3.6 0-4.98 1.38-1.37 3.6-1.37 4.98 0 1.37 1.38 1.37 3.6 0 4.98-1.38 1.37-3.6 1.37-4.98 0z"/>
				<path id="&lt;Path&gt;" class="s4" d="m1247.71 1161.11c-1.38-1.37-1.38-3.6 0-4.98 1.37-1.37 3.6-1.37 4.98 0 1.37 1.38 1.37 3.61 0 4.98-1.38 1.37-3.61 1.37-4.98 0z"/>
				<path id="&lt;Path&gt;" class="s4" d="m1224.18 1184.64c-1.38-1.37-1.38-3.6 0-4.98 1.37-1.37 3.6-1.37 4.98 0 1.37 1.38 1.37 3.61 0 4.98-1.38 1.38-3.61 1.38-4.98 0z"/>
				<path id="&lt;Path&gt;" class="s4" d="m1271.24 1090.51c-1.37-1.37-1.37-3.6 0-4.98 1.38-1.37 3.6-1.37 4.98 0 1.37 1.38 1.37 3.61 0 4.98-1.38 1.38-3.6 1.38-4.98 0z"/>
				<path id="&lt;Path&gt;" class="s4" d="m1247.71 1114.04c-1.38-1.37-1.38-3.6 0-4.97 1.37-1.38 3.6-1.38 4.98 0 1.37 1.37 1.37 3.6 0 4.97-1.38 1.38-3.61 1.38-4.98 0z"/>
				<path id="&lt;Path&gt;" class="s4" d="m1224.18 1137.58c-1.38-1.38-1.38-3.6 0-4.98 1.37-1.38 3.6-1.37 4.98 0 1.37 1.38 1.37 3.6 0 4.98-1.38 1.37-3.61 1.37-4.98 0z"/>
				<path id="&lt;Path&gt;" class="s4" d="m1200.65 1161.11c-1.38-1.37-1.38-3.6 0-4.98 1.37-1.37 3.6-1.37 4.97 0 1.38 1.38 1.38 3.61 0 4.98-1.37 1.37-3.6 1.37-4.97 0z"/>
			</g>
			<g id="&lt;Group&gt;">
				<path id="&lt;Path&gt;" class="s7" d="m1920 795.91l-484.08 484.09"/>
				<path id="&lt;Path&gt;" class="s7" d="m1920 822.15l-457.84 457.85"/>
				<path id="&lt;Path&gt;" class="s7" d="m1920 848.39l-431.6 431.61"/>
				<path id="&lt;Path&gt;" class="s7" d="m1920 874.63l-405.36 405.37"/>
				<path id="&lt;Path&gt;" class="s7" d="m1920 900.87l-379.12 379.13"/>
			</g>
			<g id="&lt;Group&gt;" style="opacity: .6;mix-blend-mode: multiply">
				<path id="&lt;Path&gt;" class="s5" d="m0 600.08l679.92 679.92"/>
				<path id="&lt;Path&gt;" class="s5" d="m0 569.04l710.97 710.96"/>
				<path id="&lt;Path&gt;" class="s5" d="m0 537.99l742.01 742.01"/>
				<path id="&lt;Path&gt;" class="s5" d="m0 506.95l773.05 773.05"/>
				<path id="&lt;Path&gt;" class="s5" d="m0 475.91l804.1 804.09"/>
			</g>
			<path id="&lt;Path&gt;" class="s4" d="m219.15 662.21l-82.61-82.61 82.61-82.61 82.61 82.61z"/>
			<path id="&lt;Path&gt;" class="s3" d="m0 1049.58l230.42 230.42h-230.42z"/>
			<path id="&lt;Path&gt;" class="s3" d="m879.5 0h-173.78l-378.42 378.42-327.3-327.3v173.78l327.3 327.3z"/>
			<path id="&lt;Path&gt;" class="s4" d="m154.2 0h-44.09l-110.11 110.11v148.43l206.37-206.37z"/>
			<g id="&lt;Group&gt;">
				<path id="&lt;Path&gt;" fill-rule="evenodd" class="s4" d="m227.46 248.18c-1.95 0-3.52-1.57-3.52-3.52 0-1.95 1.57-3.52 3.52-3.52 1.95 0 3.52 1.57 3.52 3.52 0 1.95-1.57 3.52-3.52 3.52z"/>
				<path id="&lt;Path&gt;" fill-rule="evenodd" class="s4" d="m260.74 248.18c-1.95 0-3.52-1.57-3.52-3.52 0-1.95 1.57-3.52 3.52-3.52 1.95 0 3.52 1.57 3.52 3.52 0 1.95-1.57 3.52-3.52 3.52z"/>
				<path id="&lt;Path&gt;" fill-rule="evenodd" class="s4" d="m294.02 248.18c-1.95 0-3.52-1.57-3.52-3.52 0-1.95 1.57-3.52 3.52-3.52 1.95 0 3.52 1.57 3.52 3.52 0 1.95-1.57 3.52-3.52 3.52z"/>
				<path id="&lt;Path&gt;" fill-rule="evenodd" class="s4" d="m327.3 248.18c-1.95 0-3.52-1.57-3.52-3.52 0-1.95 1.57-3.52 3.52-3.52 1.95 0 3.52 1.57 3.52 3.52 0 1.95-1.57 3.52-3.52 3.52z"/>
				<path id="&lt;Path&gt;" fill-rule="evenodd" class="s4" d="m360.58 248.18c-1.95 0-3.52-1.57-3.52-3.52 0-1.95 1.57-3.52 3.52-3.52 1.95 0 3.52 1.57 3.52 3.52 0 1.95-1.57 3.52-3.52 3.52z"/>
				<path id="&lt;Path&gt;" fill-rule="evenodd" class="s4" d="m393.86 248.18c-1.95 0-3.52-1.57-3.52-3.52 0-1.95 1.57-3.52 3.52-3.52 1.95 0 3.52 1.57 3.52 3.52 0 1.95-1.57 3.52-3.52 3.52z"/>
				<path id="&lt;Path&gt;" fill-rule="evenodd" class="s4" d="m427.14 248.18c-1.95 0-3.52-1.57-3.52-3.52 0-1.95 1.57-3.52 3.52-3.52 1.95 0 3.52 1.57 3.52 3.52 0 1.95-1.57 3.52-3.52 3.52z"/>
				<path id="&lt;Path&gt;" fill-rule="evenodd" class="s4" d="m227.46 281.46c-1.95 0-3.52-1.57-3.52-3.52 0-1.95 1.57-3.52 3.52-3.52 1.95 0 3.52 1.57 3.52 3.52 0 1.95-1.57 3.52-3.52 3.52z"/>
				<path id="&lt;Path&gt;" fill-rule="evenodd" class="s4" d="m260.74 281.46c-1.95 0-3.52-1.57-3.52-3.52 0-1.95 1.57-3.52 3.52-3.52 1.95 0 3.52 1.57 3.52 3.52 0 1.95-1.57 3.52-3.52 3.52z"/>
				<path id="&lt;Path&gt;" fill-rule="evenodd" class="s4" d="m294.02 281.46c-1.95 0-3.52-1.57-3.52-3.52 0-1.95 1.57-3.52 3.52-3.52 1.95 0 3.52 1.57 3.52 3.52 0 1.95-1.57 3.52-3.52 3.52z"/>
				<path id="&lt;Path&gt;" fill-rule="evenodd" class="s4" d="m327.3 281.46c-1.95 0-3.52-1.57-3.52-3.52 0-1.95 1.57-3.52 3.52-3.52 1.95 0 3.52 1.57 3.52 3.52 0 1.95-1.57 3.52-3.52 3.52z"/>
				<path id="&lt;Path&gt;" fill-rule="evenodd" class="s4" d="m360.58 281.46c-1.95 0-3.52-1.57-3.52-3.52 0-1.95 1.57-3.52 3.52-3.52 1.95 0 3.52 1.57 3.52 3.52 0 1.95-1.57 3.52-3.52 3.52z"/>
				<path id="&lt;Path&gt;" fill-rule="evenodd" class="s4" d="m393.86 281.46c-1.95 0-3.52-1.57-3.52-3.52 0-1.95 1.57-3.52 3.52-3.52 1.95 0 3.52 1.57 3.52 3.52 0 1.95-1.57 3.52-3.52 3.52z"/>
				<path id="&lt;Path&gt;" fill-rule="evenodd" class="s4" d="m427.14 281.46c-1.95 0-3.52-1.57-3.52-3.52 0-1.95 1.57-3.52 3.52-3.52 1.95 0 3.52 1.57 3.52 3.52 0 1.95-1.57 3.52-3.52 3.52z"/>
				<path id="&lt;Path&gt;" fill-rule="evenodd" class="s4" d="m227.46 314.74c-1.95 0-3.52-1.57-3.52-3.52 0-1.95 1.57-3.52 3.52-3.52 1.95 0 3.52 1.57 3.52 3.52 0 1.95-1.57 3.52-3.52 3.52z"/>
				<path id="&lt;Path&gt;" fill-rule="evenodd" class="s4" d="m260.74 314.74c-1.95 0-3.52-1.57-3.52-3.52 0-1.95 1.57-3.52 3.52-3.52 1.95 0 3.52 1.57 3.52 3.52 0 1.95-1.57 3.52-3.52 3.52z"/>
				<path id="&lt;Path&gt;" fill-rule="evenodd" class="s4" d="m294.02 314.74c-1.95 0-3.52-1.57-3.52-3.52 0-1.95 1.57-3.52 3.52-3.52 1.95 0 3.52 1.57 3.52 3.52 0 1.95-1.57 3.52-3.52 3.52z"/>
				<path id="&lt;Path&gt;" fill-rule="evenodd" class="s4" d="m327.3 314.74c-1.95 0-3.52-1.57-3.52-3.52 0-1.95 1.57-3.52 3.52-3.52 1.95 0 3.52 1.57 3.52 3.52 0 1.95-1.57 3.52-3.52 3.52z"/>
				<path id="&lt;Path&gt;" fill-rule="evenodd" class="s4" d="m360.58 314.74c-1.95 0-3.52-1.57-3.52-3.52 0-1.95 1.57-3.52 3.52-3.52 1.95 0 3.52 1.57 3.52 3.52 0 1.95-1.57 3.52-3.52 3.52z"/>
				<path id="&lt;Path&gt;" fill-rule="evenodd" class="s4" d="m393.86 314.74c-1.95 0-3.52-1.57-3.52-3.52 0-1.95 1.57-3.52 3.52-3.52 1.95 0 3.52 1.57 3.52 3.52 0 1.95-1.57 3.52-3.52 3.52z"/>
				<path id="&lt;Path&gt;" fill-rule="evenodd" class="s4" d="m427.14 314.74c-1.95 0-3.52-1.57-3.52-3.52 0-1.95 1.57-3.52 3.52-3.52 1.95 0 3.52 1.57 3.52 3.52 0 1.95-1.57 3.52-3.52 3.52z"/>
				<path id="&lt;Path&gt;" fill-rule="evenodd" class="s4" d="m227.46 348.02c-1.95 0-3.52-1.57-3.52-3.52 0-1.95 1.57-3.52 3.52-3.52 1.95 0 3.52 1.57 3.52 3.52 0 1.95-1.57 3.52-3.52 3.52z"/>
				<path id="&lt;Path&gt;" fill-rule="evenodd" class="s4" d="m260.74 348.02c-1.95 0-3.52-1.57-3.52-3.52 0-1.95 1.57-3.52 3.52-3.52 1.95 0 3.52 1.57 3.52 3.52 0 1.95-1.57 3.52-3.52 3.52z"/>
				<path id="&lt;Path&gt;" fill-rule="evenodd" class="s4" d="m294.02 348.02c-1.95 0-3.52-1.57-3.52-3.52 0-1.95 1.57-3.52 3.52-3.52 1.95 0 3.52 1.57 3.52 3.52 0 1.95-1.57 3.52-3.52 3.52z"/>
				<path id="&lt;Path&gt;" fill-rule="evenodd" class="s4" d="m327.3 348.02c-1.95 0-3.52-1.57-3.52-3.52 0-1.95 1.57-3.52 3.52-3.52 1.95 0 3.52 1.57 3.52 3.52 0 1.95-1.57 3.52-3.52 3.52z"/>
				<path id="&lt;Path&gt;" fill-rule="evenodd" class="s4" d="m360.58 348.02c-1.95 0-3.52-1.57-3.52-3.52 0-1.95 1.57-3.52 3.52-3.52 1.95 0 3.52 1.57 3.52 3.52 0 1.95-1.57 3.52-3.52 3.52z"/>
				<path id="&lt;Path&gt;" fill-rule="evenodd" class="s4" d="m393.86 348.02c-1.95 0-3.52-1.57-3.52-3.52 0-1.95 1.57-3.52 3.52-3.52 1.95 0 3.52 1.57 3.52 3.52 0 1.95-1.57 3.52-3.52 3.52z"/>
				<path id="&lt;Path&gt;" fill-rule="evenodd" class="s4" d="m427.14 348.02c-1.95 0-3.52-1.57-3.52-3.52 0-1.95 1.57-3.52 3.52-3.52 1.95 0 3.52 1.57 3.52 3.52 0 1.95-1.57 3.52-3.52 3.52z"/>
				<path id="&lt;Path&gt;" fill-rule="evenodd" class="s4" d="m227.46 381.3c-1.95 0-3.52-1.57-3.52-3.52 0-1.95 1.57-3.52 3.52-3.52 1.95 0 3.52 1.57 3.52 3.52 0 1.95-1.57 3.52-3.52 3.52z"/>
				<path id="&lt;Path&gt;" fill-rule="evenodd" class="s4" d="m260.74 381.3c-1.95 0-3.52-1.57-3.52-3.52 0-1.95 1.57-3.52 3.52-3.52 1.95 0 3.52 1.57 3.52 3.52 0 1.95-1.57 3.52-3.52 3.52z"/>
				<path id="&lt;Path&gt;" fill-rule="evenodd" class="s4" d="m294.02 381.3c-1.95 0-3.52-1.57-3.52-3.52 0-1.95 1.57-3.52 3.52-3.52 1.95 0 3.52 1.57 3.52 3.52 0 1.95-1.57 3.52-3.52 3.52z"/>
				<path id="&lt;Path&gt;" fill-rule="evenodd" class="s4" d="m327.3 381.3c-1.95 0-3.52-1.57-3.52-3.52 0-1.95 1.57-3.52 3.52-3.52 1.95 0 3.52 1.57 3.52 3.52 0 1.95-1.57 3.52-3.52 3.52z"/>
				<path id="&lt;Path&gt;" fill-rule="evenodd" class="s4" d="m360.58 381.3c-1.95 0-3.52-1.57-3.52-3.52 0-1.95 1.57-3.52 3.52-3.52 1.95 0 3.52 1.57 3.52 3.52 0 1.95-1.57 3.52-3.52 3.52z"/>
				<path id="&lt;Path&gt;" fill-rule="evenodd" class="s4" d="m393.86 381.3c-1.95 0-3.52-1.57-3.52-3.52 0-1.95 1.57-3.52 3.52-3.52 1.95 0 3.52 1.57 3.52 3.52 0 1.95-1.57 3.52-3.52 3.52z"/>
				<path id="&lt;Path&gt;" fill-rule="evenodd" class="s4" d="m427.14 381.3c-1.95 0-3.52-1.57-3.52-3.52 0-1.95 1.57-3.52 3.52-3.52 1.95 0 3.52 1.57 3.52 3.52 0 1.95-1.57 3.52-3.52 3.52z"/>
			</g>
		</g>
	</g>
</svg>