<svg version="1.2" xmlns="http://www.w3.org/2000/svg" viewBox="0 0 2807 1604" width="2807" height="1604">
	<defs>
		<clipPath clipPathUnits="userSpaceOnUse" id="cp1">
			<path d="m2806.24 1603.57h-2806.24v-1603.57h2806.24z"/>
		</clipPath>
		<linearGradient id="g1" x2="1" gradientUnits="userSpaceOnUse" gradientTransform="matrix(396.29,1146.597,-2680.222,926.345,1814.396,265.116)">
			<stop offset=".347" stop-color="#1a1a1a"/>
			<stop offset="1" stop-color="#000000"/>
		</linearGradient>
		<linearGradient id="g2" x2="1" gradientUnits="userSpaceOnUse" gradientTransform="matrix(-168.156,-836.108,2089.01,-420.137,567.847,851.882)">
			<stop offset=".347" stop-color="#1a1a1a"/>
			<stop offset="1" stop-color="#000000"/>
		</linearGradient>
	</defs>
	<style>
		.s0 { fill: #000000 } 
		.s1 { fill: #333333 } 
		.s2 { fill: url(#g1) } 
		.s3 { fill: url(#g2) } 
		.s4 { fill: #e94100 } 
		.s5 { fill: #ffffff } 
	</style>
	<g id="_Artboards_">
	</g>
	<g id="Layer 1">
		<g id="&lt;Group&gt;">
			<path id="&lt;Path&gt;" class="s0" d="m2806.24 1603.57h-2806.24v-1603.57h2806.24z"/>
			<g id="&lt;Clip Group&gt;" clip-path="url(#cp1)">
				<g id="&lt;Group&gt;" style="opacity: .3">
					<g id="&lt;Group&gt;">
						<path id="&lt;Compound Path&gt;" fill-rule="evenodd" class="s1" d="m702.8 2248.85c-380.83 0-690.65-309.83-690.65-690.65 0-380.83 309.82-690.65 690.65-690.65 380.82 0 690.65 309.82 690.65 690.65 0 380.82-309.83 690.65-690.65 690.65zm0-1353.46c-365.48 0-662.81 297.33-662.81 662.81 0 365.47 297.33 662.81 662.81 662.81 365.47 0 662.81-297.34 662.81-662.81 0-365.48-297.34-662.81-662.81-662.81z"/>
					</g>
					<g id="Offset Group 15 ">
						<g id="&lt;Group&gt;">
							<path id="&lt;Compound Path&gt;" fill-rule="evenodd" class="s1" d="m702.8 2330.06c-206.17 0-400-80.29-545.79-226.08-145.78-145.78-226.07-339.61-226.07-545.78 0-206.17 80.29-400 226.07-545.78 145.79-145.79 339.62-226.08 545.79-226.08 206.17 0 400 80.29 545.78 226.08 145.79 145.78 226.08 339.61 226.08 545.78 0 206.17-80.29 400-226.08 545.78-145.78 145.79-339.61 226.08-545.78 226.08zm0-1515.88c-198.74 0-385.57 77.39-526.1 217.92-140.53 140.53-217.92 327.37-217.92 526.1 0 198.73 77.39 385.57 217.92 526.1 140.53 140.52 327.36 217.92 526.1 217.92 198.73 0 385.57-77.4 526.1-217.92 140.52-140.53 217.92-327.37 217.92-526.1 0-198.73-77.4-385.57-217.92-526.1-140.53-140.53-327.37-217.92-526.1-217.92z"/>
						</g>
						<g id="&lt;Group&gt;">
							<path id="&lt;Compound Path&gt;" fill-rule="evenodd" class="s1" d="m702.8 2167.64c-162.79 0-315.83-63.39-430.94-178.5-115.11-115.11-178.5-268.15-178.5-430.94 0-162.79 63.39-315.83 178.5-430.94 115.11-115.11 268.15-178.5 430.94-178.5 162.79 0 315.83 63.39 430.94 178.5 115.11 115.11 178.5 268.15 178.5 430.94 0 162.79-63.39 315.83-178.5 430.94-115.11 115.11-268.15 178.5-430.94 178.5zm0-1191.04c-155.35 0-301.41 60.49-411.26 170.34-109.85 109.85-170.34 255.91-170.34 411.26 0 155.35 60.49 301.4 170.34 411.25 109.85 109.85 255.91 170.35 411.26 170.35 155.35 0 301.4-60.5 411.26-170.35 109.84-109.85 170.34-255.9 170.34-411.25 0-155.35-60.5-301.41-170.34-411.26-109.86-109.85-255.91-170.34-411.26-170.34z"/>
						</g>
					</g>
				</g>
				<g id="&lt;Group&gt;" style="opacity: .3">
					<g id="&lt;Group&gt;">
						<path id="&lt;Compound Path&gt;" fill-rule="evenodd" class="s1" d="m2428.45 710.56c-278.55 0-505.17-226.61-505.17-505.16 0-278.55 226.62-505.17 505.17-505.17 278.55 0 505.16 226.62 505.16 505.17 0 278.55-226.61 505.16-505.16 505.16zm0-982.49c-263.2 0-477.33 214.13-477.33 477.33 0 263.2 214.13 477.32 477.33 477.32 263.2 0 477.32-214.12 477.32-477.32 0-263.2-214.12-477.33-477.32-477.33z"/>
					</g>
					<g id="Offset Group 16 ">
						<g id="&lt;Group&gt;">
							<path id="&lt;Compound Path&gt;" fill-rule="evenodd" class="s1" d="m2428.45 769.51c-150.68 0-292.34-58.68-398.89-165.23-106.55-106.54-165.23-248.2-165.23-398.88 0-150.69 58.68-292.35 165.23-398.89 106.54-106.55 248.21-165.23 398.89-165.23 150.68 0 292.34 58.68 398.89 165.23 106.55 106.54 165.22 248.21 165.22 398.89 0 150.67-58.67 292.33-165.22 398.88-106.55 106.55-248.21 165.23-398.89 165.23zm0-1100.39c-143.25 0-277.92 55.78-379.21 157.07-101.28 101.29-157.07 235.96-157.07 379.21 0 143.24 55.79 277.91 157.07 379.2 101.3 101.29 235.96 157.07 379.21 157.07 143.24 0 277.91-55.78 379.2-157.07 101.29-101.29 157.07-235.96 157.07-379.2 0-143.25-55.78-277.92-157.07-379.21-101.29-101.29-235.96-157.07-379.2-157.07z"/>
						</g>
						<g id="&lt;Group&gt;">
							<path id="&lt;Compound Path&gt;" fill-rule="evenodd" class="s1" d="m2428.45 651.61c-119.19 0-231.25-46.41-315.52-130.69-84.28-84.28-130.7-196.34-130.7-315.52 0-119.2 46.42-231.25 130.7-315.53 84.27-84.28 196.33-130.69 315.52-130.69 119.19 0 231.24 46.41 315.52 130.69 84.28 84.28 130.69 196.34 130.69 315.53 0 119.18-46.41 231.24-130.69 315.52-84.28 84.28-196.34 130.69-315.52 130.69zm0-864.59c-111.76 0-216.82 43.52-295.84 122.54-79.02 79.02-122.54 184.08-122.54 295.84 0 111.75 43.52 216.81 122.54 295.83 79.02 79.02 184.09 122.54 295.84 122.54 111.75 0 216.81-43.52 295.84-122.54 79.02-79.02 122.53-184.08 122.53-295.83 0-111.76-43.51-216.82-122.53-295.84-79.03-79.02-184.09-122.54-295.84-122.54z"/>
						</g>
					</g>
				</g>
				<path id="&lt;Path&gt;" class="s2" d="m692.81 1568.7c69.29-78.9 171.07-136.67 275.61-126.74 106.36 10.1 198.65 86.94 305.37 91.89 109.74 5.09 208.77-67.56 279.18-151.89 70.4-84.34 122.63-183.33 198.8-262.5 167.52-174.13 449.21-225.93 667.72-122.78 81.84 38.63 157.49 97.26 247.37 107.81 103.72 12.19 210.96-42.29 310.79-11.64 91.57 28.12 148.98 121.63 170 215.09 44.09 196.02-48.27 415.18-219.35 520.53-138.5 85.29-308.83 95.75-471.35 102.37-573.08 23.35-1146.92 27.96-1720.3 13.84-75.45-1.86-200-22.63-186.04-123.74 11.48-83.14 88.27-190.83 142.2-252.24z"/>
				<path id="&lt;Path&gt;" class="s3" d="m1357.03 115c-43.83 49.91-108.22 86.45-174.34 80.17-67.28-6.39-125.66-55-193.17-58.13-69.42-3.22-132.07 42.74-176.6 96.09-44.54 53.34-77.58 115.97-125.76 166.05-105.97 110.14-284.16 142.91-422.38 77.66-51.77-24.44-99.63-61.52-156.48-68.2-65.61-7.71-133.45 26.76-196.6 7.36-57.93-17.78-94.24-76.93-107.54-136.05-27.89-124 30.54-262.64 138.76-329.28 87.61-53.95 195.36-60.56 298.16-64.75 362.52-14.77 725.51-17.69 1088.22-8.76 47.73 1.18 126.51 14.32 117.68 78.28-7.26 52.59-55.84 120.71-89.95 159.56z"/>
				<g id="&lt;Group&gt;">
					<g id="&lt;Group&gt;">
						<path id="&lt;Compound Path&gt;" fill-rule="evenodd" class="s4" d="m123.73 1457.84c-225.3 0-408.59-183.29-408.59-408.59 0-225.3 183.29-408.6 408.59-408.6 225.3 0 408.6 183.3 408.6 408.6 0 225.3-183.3 408.59-408.6 408.59zm0-811.62c-222.23 0-403.03 180.8-403.03 403.03 0 222.23 180.8 403.03 403.03 403.03 222.23 0 403.03-180.8 403.03-403.03 0-222.23-180.8-403.03-403.03-403.03z"/>
					</g>
					<g id="Offset Group 7 ">
						<g id="&lt;Group&gt;">
							<path id="&lt;Compound Path&gt;" fill-rule="evenodd" class="s4" d="m123.73 1506.54c-122.14 0-236.98-47.57-323.35-133.94-86.37-86.37-133.94-201.21-133.94-323.35 0-122.15 47.57-236.98 133.94-323.36 86.37-86.37 201.21-133.94 323.35-133.94 122.15 0 236.98 47.57 323.36 133.94 86.37 86.38 133.94 201.21 133.94 323.36 0 122.14-47.57 236.98-133.94 323.35-86.38 86.37-201.21 133.94-323.36 133.94zm0-909.02c-120.66 0-234.09 46.99-319.42 132.31-85.32 85.32-132.3 198.76-132.3 319.42 0 120.66 46.98 234.09 132.3 319.42 85.33 85.32 198.76 132.3 319.42 132.3 120.66 0 234.1-46.98 319.42-132.3 85.32-85.33 132.31-198.76 132.31-319.42 0-120.66-46.99-234.1-132.31-319.42-85.32-85.32-198.76-132.31-319.42-132.31z"/>
						</g>
						<g id="&lt;Group&gt;">
							<path id="&lt;Compound Path&gt;" fill-rule="evenodd" class="s4" d="m123.73 1409.15c-96.13 0-186.51-37.44-254.48-105.42-67.98-67.97-105.42-158.35-105.42-254.48 0-96.13 37.44-186.52 105.42-254.49 67.97-67.98 158.35-105.41 254.48-105.41 96.14 0 186.52 37.43 254.49 105.41 67.98 67.97 105.41 158.36 105.41 254.49 0 96.13-37.43 186.51-105.41 254.48-67.97 67.98-158.35 105.42-254.49 105.42zm0-714.23c-94.64 0-183.62 36.85-250.55 103.78-66.92 66.92-103.78 155.9-103.78 250.55 0 94.65 36.86 183.62 103.78 250.55 66.93 66.92 155.91 103.78 250.55 103.78 94.65 0 183.63-36.86 250.55-103.78 66.93-66.93 103.78-155.9 103.78-250.55 0-94.65-36.85-183.63-103.78-250.55-66.92-66.93-155.9-103.78-250.55-103.78z"/>
						</g>
					</g>
				</g>
				<g id="&lt;Group&gt;">
					<g id="&lt;Group&gt;">
						<path id="&lt;Compound Path&gt;" fill-rule="evenodd" class="s1" d="m2771.6 593.72c-166.82 0-302.54-135.72-302.54-302.54 0-166.82 135.72-302.54 302.54-302.54 166.82 0 302.54 135.72 302.54 302.54 0 166.82-135.72 302.54-302.54 302.54zm0-599.51c-163.75 0-296.97 133.22-296.97 296.97 0 163.75 133.22 296.97 296.97 296.97 163.75 0 296.97-133.22 296.97-296.97 0-163.75-133.22-296.97-296.97-296.97z"/>
					</g>
					<g id="Offset Group 14 ">
						<g id="&lt;Group&gt;">
							<path id="&lt;Compound Path&gt;" fill-rule="evenodd" class="s1" d="m2771.6 629.69c-90.42 0-175.43-35.21-239.36-99.14-63.94-63.94-99.15-148.95-99.15-239.37 0-90.41 35.21-175.42 99.15-239.36 63.93-63.94 148.94-99.15 239.36-99.15 90.41 0 175.42 35.21 239.36 99.15 63.94 63.94 99.15 148.94 99.15 239.36 0 90.42-35.21 175.43-99.15 239.37-63.94 63.93-148.94 99.14-239.36 99.14zm0-671.45c-88.93 0-172.54 34.63-235.43 97.52-62.88 62.88-97.52 146.49-97.52 235.42 0 88.93 34.64 172.54 97.52 235.43 62.89 62.88 146.5 97.52 235.43 97.52 88.93 0 172.54-34.64 235.43-97.52 62.88-62.89 97.51-146.5 97.51-235.43 0-88.93-34.63-172.54-97.51-235.42-62.89-62.89-146.5-97.52-235.43-97.52z"/>
						</g>
						<g id="&lt;Group&gt;">
							<path id="&lt;Compound Path&gt;" fill-rule="evenodd" class="s1" d="m2771.6 557.75c-71.2 0-138.14-27.73-188.49-78.08-50.35-50.34-78.08-117.28-78.08-188.49 0-71.2 27.73-138.14 78.08-188.49 50.34-50.35 117.28-78.08 188.49-78.08 71.2 0 138.14 27.73 188.49 78.08 50.35 50.35 78.08 117.29 78.08 188.49 0 71.21-27.73 138.15-78.08 188.49-50.35 50.35-117.29 78.08-188.49 78.08zm0-527.57c-69.72 0-135.26 27.15-184.56 76.45-49.29 49.29-76.44 114.83-76.44 184.55 0 69.72 27.15 135.26 76.44 184.56 49.3 49.3 114.84 76.45 184.56 76.45 69.71 0 135.26-27.15 184.56-76.45 49.29-49.3 76.44-114.84 76.44-184.56 0-69.71-27.15-135.26-76.44-184.55-49.3-49.3-114.85-76.45-184.56-76.45z"/>
						</g>
					</g>
				</g>
				<g id="&lt;Group&gt;">
					<path id="&lt;Compound Path&gt;" fill-rule="evenodd" class="s4" d="m2447.42 242.82c-165.28 0-299.74-134.46-299.74-299.74 0-165.27 134.46-299.74 299.74-299.74 165.28 0 299.74 134.47 299.74 299.74 0 165.28-134.46 299.74-299.74 299.74zm0-593.91c-162.21 0-294.17 131.97-294.17 294.17 0 162.21 131.96 294.18 294.17 294.18 162.21 0 294.17-131.97 294.17-294.18 0-162.2-131.96-294.17-294.17-294.17z"/>
				</g>
				<g id="&lt;Group&gt;">
					<path id="&lt;Path&gt;" class="s4" d="m-133.47 627l-5.1-2.25c62.69-141.87 187.7-256.62 334.41-306.96 116.22-39.87 241.63-40.54 362.91-41.19 80.89-0.43 164.54-0.88 245.09-12.88 255.45-38.06 491.71-202.14 616.58-428.23l4.87 2.69c-125.68 227.57-363.5 392.74-620.63 431.05-80.94 12.06-164.79 12.51-245.88 12.94-120.83 0.64-245.78 1.31-361.14 40.89-145.26 49.84-269.05 163.47-331.11 303.94z"/>
				</g>
				<g id="&lt;Group&gt;">
					<path id="&lt;Path&gt;" class="s4" d="m2996.44 1594.45l-5.55-0.51c9.24-102.65-72.27-204.57-174.44-218.11-35.64-4.73-72.21 0.22-107.56 4.99-22.82 3.08-46.42 6.27-69.76 6.9-60.71 1.66-130.57-22.39-150.03-79.7-11.74-34.58-2.19-76.96 24.92-110.59 26.34-32.68 64.14-53.2 94.11-67.42 111.85-53.05 236.05-74.4 359.21-61.75l-0.57 5.54c-122.14-12.55-245.33 8.63-356.25 61.24-29.45 13.97-66.53 34.08-92.17 65.88-25.92 32.17-35.11 72.52-23.98 105.31 18.55 54.63 85.98 77.54 144.61 75.92 23.04-0.62 46.49-3.78 69.16-6.85 35.72-4.82 72.65-9.82 109.04-4.99 104.99 13.91 188.76 118.65 179.26 224.14z"/>
				</g>
				<g id="&lt;Group&gt;">
					<path id="&lt;Path&gt;" class="s5" d="m712.97 151.52c-173.5 0-347.74-86.31-444.31-231.88l4.64-3.08c124.59 187.81 379.86 275.92 593.78 204.98 157.08-52.1 279.98-176.03 388.42-285.37l3.95 3.92c-108.87 109.78-232.27 234.21-390.62 286.73-50.41 16.72-103.11 24.7-155.86 24.7z"/>
				</g>
				<g id="&lt;Group&gt;">
					<path id="&lt;Path&gt;" class="s4" d="m2278.45 1248.67c0 2.73-2.21 4.95-4.95 4.95-2.73 0-4.95-2.22-4.95-4.95 0-2.73 2.22-4.95 4.95-4.95 2.74 0 4.95 2.22 4.95 4.95z"/>
					<path id="&lt;Path&gt;" class="s4" d="m1858.79 1308.24c0 2.74-2.22 4.95-4.95 4.95-2.73 0-4.95-2.21-4.95-4.95 0-2.73 2.22-4.95 4.95-4.95 2.73 0 4.95 2.22 4.95 4.95z"/>
					<path id="&lt;Path&gt;" class="s4" d="m2458.04 1271.8c0 2.74-2.22 4.95-4.95 4.95-2.74 0-4.95-2.21-4.95-4.95 0-2.73 2.21-4.94 4.95-4.94 2.73 0 4.95 2.21 4.95 4.94z"/>
					<path id="&lt;Path&gt;" class="s4" d="m2190.59 848.14c0 2.73-2.21 4.95-4.95 4.95-2.73 0-4.95-2.22-4.95-4.95 0-2.74 2.22-4.95 4.95-4.95 2.74 0 4.95 2.21 4.95 4.95z"/>
					<path id="&lt;Path&gt;" class="s4" d="m1956.41 1348.27c0 2.73-2.21 4.94-4.95 4.94-2.73 0-4.95-2.21-4.95-4.94 0-2.74 2.22-4.95 4.95-4.95 2.74 0 4.95 2.21 4.95 4.95z"/>
					<path id="&lt;Path&gt;" class="s4" d="m1958.62 1428.4c0 2.73-2.22 4.95-4.95 4.95-2.73 0-4.95-2.22-4.95-4.95 0-2.73 2.22-4.95 4.95-4.95 2.73 0 4.95 2.22 4.95 4.95z"/>
					<path id="&lt;Path&gt;" class="s4" d="m2152.16 1204.53c0 2.73-2.22 4.95-4.95 4.95-2.73 0-4.95-2.22-4.95-4.95 0-2.73 2.22-4.95 4.95-4.95 2.73 0 4.95 2.22 4.95 4.95z"/>
					<path id="&lt;Path&gt;" class="s4" d="m2305.14 1308.48c0 2.73-2.21 4.95-4.95 4.95-2.73 0-4.95-2.22-4.95-4.95 0-2.74 2.22-4.95 4.95-4.95 2.74 0 4.95 2.21 4.95 4.95z"/>
					<path id="&lt;Path&gt;" class="s4" d="m2321.96 1195.07c0 2.73-2.22 4.95-4.95 4.95-2.73 0-4.95-2.22-4.95-4.95 0-2.73 2.22-4.95 4.95-4.95 2.73 0 4.95 2.22 4.95 4.95z"/>
					<path id="&lt;Path&gt;" class="s4" d="m2396.59 1176.96c0 2.74-2.21 4.95-4.95 4.95-2.73 0-4.95-2.21-4.95-4.95 0-2.73 2.22-4.95 4.95-4.95 2.74 0 4.95 2.22 4.95 4.95z"/>
					<path id="&lt;Path&gt;" class="s4" d="m2356.92 989.08c0 2.73-2.21 4.95-4.95 4.95-2.73 0-4.95-2.22-4.95-4.95 0-2.74 2.22-4.95 4.95-4.95 2.74 0 4.95 2.21 4.95 4.95z"/>
					<path id="&lt;Path&gt;" class="s4" d="m1909.53 1289.09c0 2.74-2.22 4.95-4.95 4.95-2.74 0-4.95-2.21-4.95-4.95 0-2.73 2.21-4.95 4.95-4.95 2.73 0 4.95 2.22 4.95 4.95z"/>
					<path id="&lt;Path&gt;" class="s4" d="m2138.17 1378.77c0 2.74-2.22 4.95-4.95 4.95-2.74 0-4.95-2.21-4.95-4.95 0-2.73 2.21-4.95 4.95-4.95 2.73 0 4.95 2.22 4.95 4.95z"/>
					<path id="&lt;Path&gt;" class="s4" d="m2253.14 871.41c0 2.74-2.22 4.95-4.95 4.95-2.74 0-4.95-2.21-4.95-4.95 0-2.73 2.21-4.95 4.95-4.95 2.73 0 4.95 2.22 4.95 4.95z"/>
					<path id="&lt;Path&gt;" class="s4" d="m1840.53 1232.24c0 2.74-2.22 4.95-4.95 4.95-2.74 0-4.95-2.21-4.95-4.95 0-2.73 2.21-4.95 4.95-4.95 2.73 0 4.95 2.22 4.95 4.95z"/>
					<path id="&lt;Path&gt;" class="s4" d="m2317.12 885.37c0 2.73-2.21 4.94-4.95 4.94-2.73 0-4.95-2.21-4.95-4.94 0-2.74 2.22-4.95 4.95-4.95 2.74 0 4.95 2.21 4.95 4.95z"/>
					<path id="&lt;Path&gt;" class="s4" d="m2024.95 1137.71c0 2.74-2.22 4.95-4.95 4.95-2.73 0-4.95-2.21-4.95-4.95 0-2.73 2.22-4.94 4.95-4.94 2.73 0 4.95 2.21 4.95 4.94z"/>
					<path id="&lt;Path&gt;" class="s4" d="m1906.07 1214.7c0 2.73-2.21 4.95-4.95 4.95-2.73 0-4.95-2.22-4.95-4.95 0-2.74 2.22-4.95 4.95-4.95 2.74 0 4.95 2.21 4.95 4.95z"/>
					<path id="&lt;Path&gt;" class="s4" d="m2112.99 1257.24c0 2.73-2.21 4.95-4.95 4.95-2.73 0-4.95-2.22-4.95-4.95 0-2.74 2.22-4.95 4.95-4.95 2.74 0 4.95 2.21 4.95 4.95z"/>
					<path id="&lt;Path&gt;" class="s4" d="m1959.44 913.22c0 2.73-2.21 4.95-4.95 4.95-2.73 0-4.94-2.22-4.94-4.95 0-2.73 2.21-4.95 4.94-4.95 2.74 0 4.95 2.22 4.95 4.95z"/>
					<path id="&lt;Path&gt;" class="s4" d="m2084.88 1316.88c0 2.74-2.22 4.95-4.95 4.95-2.73 0-4.95-2.21-4.95-4.95 0-2.73 2.22-4.94 4.95-4.94 2.73 0 4.95 2.21 4.95 4.94z"/>
					<path id="&lt;Path&gt;" class="s4" d="m2208.22 1019.66c0 2.73-2.21 4.95-4.95 4.95-2.73 0-4.94-2.22-4.94-4.95 0-2.74 2.21-4.95 4.94-4.95 2.74 0 4.95 2.21 4.95 4.95z"/>
					<path id="&lt;Path&gt;" class="s4" d="m2378.87 1250.43c0 2.74-2.22 4.95-4.95 4.95-2.73 0-4.95-2.21-4.95-4.95 0-2.73 2.22-4.95 4.95-4.95 2.73 0 4.95 2.22 4.95 4.95z"/>
					<path id="&lt;Path&gt;" class="s4" d="m2407.58 1109.65c0 2.73-2.22 4.95-4.95 4.95-2.74 0-4.95-2.22-4.95-4.95 0-2.74 2.21-4.95 4.95-4.95 2.73 0 4.95 2.21 4.95 4.95z"/>
					<path id="&lt;Path&gt;" class="s4" d="m1893.91 983.51c0 2.73-2.21 4.95-4.95 4.95-2.73 0-4.95-2.22-4.95-4.95 0-2.73 2.22-4.95 4.95-4.95 2.74 0 4.95 2.22 4.95 4.95z"/>
					<path id="&lt;Path&gt;" class="s4" d="m1976 1191.93c0 2.73-2.22 4.95-4.95 4.95-2.74 0-4.95-2.22-4.95-4.95 0-2.74 2.21-4.95 4.95-4.95 2.73 0 4.95 2.21 4.95 4.95z"/>
					<path id="&lt;Path&gt;" class="s4" d="m2161.24 1316.96c0 2.74-2.21 4.95-4.95 4.95-2.73 0-4.94-2.21-4.94-4.95 0-2.73 2.21-4.95 4.94-4.95 2.74 0 4.95 2.22 4.95 4.95z"/>
					<path id="&lt;Path&gt;" class="s4" d="m2037.74 937.38c0 2.73-2.22 4.95-4.95 4.95-2.73 0-4.95-2.22-4.95-4.95 0-2.73 2.22-4.95 4.95-4.95 2.73 0 4.95 2.22 4.95 4.95z"/>
					<path id="&lt;Path&gt;" class="s4" d="m2222.15 1190.06c0 2.74-2.21 4.95-4.95 4.95-2.73 0-4.95-2.21-4.95-4.95 0-2.73 2.22-4.94 4.95-4.94 2.74 0 4.95 2.21 4.95 4.94z"/>
					<path id="&lt;Path&gt;" class="s4" d="m2139.79 1053.33c0 2.74-2.22 4.95-4.95 4.95-2.74 0-4.95-2.21-4.95-4.95 0-2.73 2.21-4.95 4.95-4.95 2.73 0 4.95 2.22 4.95 4.95z"/>
					<path id="&lt;Path&gt;" class="s4" d="m2119.09 848.39c0 2.74-2.21 4.95-4.95 4.95-2.73 0-4.95-2.21-4.95-4.95 0-2.73 2.22-4.95 4.95-4.95 2.74 0 4.95 2.22 4.95 4.95z"/>
					<path id="&lt;Path&gt;" class="s4" d="m2201.16 1259.07c0 2.73-2.22 4.95-4.95 4.95-2.74 0-4.95-2.22-4.95-4.95 0-2.74 2.21-4.95 4.95-4.95 2.73 0 4.95 2.21 4.95 4.95z"/>
					<path id="&lt;Path&gt;" class="s4" d="m2135.48 982.49c0 2.74-2.22 4.95-4.95 4.95-2.73 0-4.95-2.21-4.95-4.95 0-2.73 2.22-4.95 4.95-4.95 2.73 0 4.95 2.22 4.95 4.95z"/>
					<path id="&lt;Path&gt;" class="s4" d="m2476.34 1131.46c0 2.73-2.21 4.95-4.95 4.95-2.73 0-4.94-2.22-4.94-4.95 0-2.74 2.21-4.95 4.94-4.95 2.74 0 4.95 2.21 4.95 4.95z"/>
					<path id="&lt;Path&gt;" class="s4" d="m2122.05 1495.93c0 2.74-2.21 4.95-4.95 4.95-2.73 0-4.95-2.21-4.95-4.95 0-2.73 2.22-4.95 4.95-4.95 2.74 0 4.95 2.22 4.95 4.95z"/>
					<path id="&lt;Path&gt;" class="s4" d="m1958.82 1110.68c0 2.73-2.22 4.95-4.95 4.95-2.74 0-4.95-2.22-4.95-4.95 0-2.73 2.21-4.95 4.95-4.95 2.73 0 4.95 2.22 4.95 4.95z"/>
					<path id="&lt;Path&gt;" class="s4" d="m2014.46 1406.63c0 2.73-2.22 4.95-4.95 4.95-2.73 0-4.95-2.22-4.95-4.95 0-2.73 2.22-4.95 4.95-4.95 2.73 0 4.95 2.22 4.95 4.95z"/>
					<path id="&lt;Path&gt;" class="s4" d="m2366.04 1322.1c0 2.74-2.21 4.95-4.95 4.95-2.73 0-4.95-2.21-4.95-4.95 0-2.73 2.22-4.95 4.95-4.95 2.74 0 4.95 2.22 4.95 4.95z"/>
					<path id="&lt;Path&gt;" class="s4" d="m2013.1 1057.5c0 2.73-2.22 4.95-4.95 4.95-2.74 0-4.95-2.22-4.95-4.95 0-2.73 2.21-4.95 4.95-4.95 2.73 0 4.95 2.22 4.95 4.95z"/>
					<path id="&lt;Path&gt;" class="s4" d="m2242.71 960.24c0 2.74-2.22 4.95-4.95 4.95-2.74 0-4.95-2.21-4.95-4.95 0-2.73 2.21-4.94 4.95-4.94 2.73 0 4.95 2.21 4.95 4.94z"/>
					<path id="&lt;Path&gt;" class="s4" d="m2169.18 1441.61c0 2.73-2.22 4.95-4.95 4.95-2.73 0-4.95-2.22-4.95-4.95 0-2.73 2.22-4.95 4.95-4.95 2.73 0 4.95 2.22 4.95 4.95z"/>
					<path id="&lt;Path&gt;" class="s4" d="m2256.74 1455.33c0 2.73-2.21 4.95-4.95 4.95-2.73 0-4.95-2.22-4.95-4.95 0-2.73 2.22-4.95 4.95-4.95 2.74 0 4.95 2.22 4.95 4.95z"/>
					<path id="&lt;Path&gt;" class="s4" d="m1834.13 1151.64c0 2.73-2.21 4.95-4.95 4.95-2.73 0-4.95-2.22-4.95-4.95 0-2.73 2.22-4.95 4.95-4.95 2.74 0 4.95 2.22 4.95 4.95z"/>
					<path id="&lt;Path&gt;" class="s4" d="m2031.85 1267.35c0 2.73-2.22 4.95-4.95 4.95-2.74 0-4.95-2.22-4.95-4.95 0-2.74 2.21-4.95 4.95-4.95 2.73 0 4.95 2.21 4.95 4.95z"/>
					<path id="&lt;Path&gt;" class="s4" d="m2082.23 1088.68c0 2.74-2.22 4.95-4.95 4.95-2.73 0-4.95-2.21-4.95-4.95 0-2.73 2.22-4.95 4.95-4.95 2.73 0 4.95 2.22 4.95 4.95z"/>
					<path id="&lt;Path&gt;" class="s4" d="m2333.59 1113.59c0 2.73-2.22 4.95-4.95 4.95-2.74 0-4.95-2.22-4.95-4.95 0-2.73 2.21-4.95 4.95-4.95 2.73 0 4.95 2.22 4.95 4.95z"/>
					<path id="&lt;Path&gt;" class="s4" d="m2051.69 1210.54c0 2.74-2.21 4.95-4.95 4.95-2.73 0-4.95-2.21-4.95-4.95 0-2.73 2.22-4.95 4.95-4.95 2.74 0 4.95 2.22 4.95 4.95z"/>
					<path id="&lt;Path&gt;" class="s4" d="m2207.38 1099.32c0 2.74-2.21 4.95-4.95 4.95-2.73 0-4.95-2.21-4.95-4.95 0-2.73 2.22-4.95 4.95-4.95 2.74 0 4.95 2.22 4.95 4.95z"/>
					<path id="&lt;Path&gt;" class="s4" d="m2155.07 1132.26c0 2.74-2.22 4.95-4.95 4.95-2.74 0-4.95-2.21-4.95-4.95 0-2.73 2.21-4.95 4.95-4.95 2.73 0 4.95 2.22 4.95 4.95z"/>
					<path id="&lt;Path&gt;" class="s4" d="m2034.78 1472.82c0 2.73-2.22 4.95-4.95 4.95-2.74 0-4.95-2.22-4.95-4.95 0-2.74 2.21-4.95 4.95-4.95 2.73 0 4.95 2.21 4.95 4.95z"/>
					<path id="&lt;Path&gt;" class="s4" d="m2379.16 1398.4c0 2.73-2.22 4.95-4.95 4.95-2.74 0-4.95-2.22-4.95-4.95 0-2.73 2.21-4.95 4.95-4.95 2.73 0 4.95 2.22 4.95 4.95z"/>
					<path id="&lt;Path&gt;" class="s4" d="m1976.81 983.13c0 2.73-2.22 4.95-4.95 4.95-2.74 0-4.95-2.22-4.95-4.95 0-2.73 2.21-4.95 4.95-4.95 2.73 0 4.95 2.22 4.95 4.95z"/>
					<path id="&lt;Path&gt;" class="s4" d="m2298.08 1381.72c0 2.73-2.21 4.95-4.95 4.95-2.73 0-4.95-2.22-4.95-4.95 0-2.73 2.22-4.95 4.95-4.95 2.74 0 4.95 2.22 4.95 4.95z"/>
					<path id="&lt;Path&gt;" class="s4" d="m1857.09 1067.7c0 2.74-2.21 4.95-4.94 4.95-2.74 0-4.95-2.21-4.95-4.95 0-2.73 2.21-4.95 4.95-4.95 2.73 0 4.94 2.22 4.94 4.95z"/>
					<path id="&lt;Path&gt;" class="s4" d="m1967.27 1266.34c0 2.73-2.22 4.94-4.95 4.94-2.73 0-4.95-2.21-4.95-4.94 0-2.74 2.22-4.95 4.95-4.95 2.73 0 4.95 2.21 4.95 4.95z"/>
					<path id="&lt;Path&gt;" class="s4" d="m2215.13 1387.26c0 2.74-2.22 4.95-4.95 4.95-2.73 0-4.95-2.21-4.95-4.95 0-2.73 2.22-4.95 4.95-4.95 2.73 0 4.95 2.22 4.95 4.95z"/>
					<path id="&lt;Path&gt;" class="s4" d="m1902.38 1372.52c0 2.74-2.22 4.95-4.95 4.95-2.73 0-4.95-2.21-4.95-4.95 0-2.73 2.22-4.94 4.95-4.94 2.73 0 4.95 2.21 4.95 4.94z"/>
					<path id="&lt;Path&gt;" class="s4" d="m2038.8 868.58c0 2.73-2.22 4.95-4.95 4.95-2.74 0-4.95-2.22-4.95-4.95 0-2.74 2.21-4.95 4.95-4.95 2.73 0 4.95 2.21 4.95 4.95z"/>
					<path id="&lt;Path&gt;" class="s4" d="m2459.29 1055.28c0 2.73-2.22 4.95-4.95 4.95-2.73 0-4.95-2.22-4.95-4.95 0-2.73 2.22-4.95 4.95-4.95 2.73 0 4.95 2.22 4.95 4.95z"/>
					<path id="&lt;Path&gt;" class="s4" d="m2321.13 1451.32c0 2.74-2.22 4.95-4.95 4.95-2.74 0-4.95-2.21-4.95-4.95 0-2.73 2.21-4.95 4.95-4.95 2.73 0 4.95 2.22 4.95 4.95z"/>
					<path id="&lt;Path&gt;" class="s4" d="m2302.61 948.8c0 2.74-2.21 4.95-4.95 4.95-2.73 0-4.94-2.21-4.94-4.95 0-2.73 2.21-4.95 4.94-4.95 2.74 0 4.95 2.22 4.95 4.95z"/>
					<path id="&lt;Path&gt;" class="s4" d="m2062.85 1004.98c0 2.73-2.22 4.95-4.95 4.95-2.73 0-4.95-2.22-4.95-4.95 0-2.74 2.22-4.95 4.95-4.95 2.73 0 4.95 2.21 4.95 4.95z"/>
					<path id="&lt;Path&gt;" class="s4" d="m1902.25 1140.82c0 2.73-2.21 4.95-4.95 4.95-2.73 0-4.94-2.22-4.94-4.95 0-2.74 2.21-4.95 4.94-4.95 2.74 0 4.95 2.21 4.95 4.95z"/>
					<path id="&lt;Path&gt;" class="s4" d="m2267.77 1146.15c0 2.73-2.22 4.95-4.95 4.95-2.73 0-4.95-2.22-4.95-4.95 0-2.74 2.22-4.95 4.95-4.95 2.73 0 4.95 2.21 4.95 4.95z"/>
					<path id="&lt;Path&gt;" class="s4" d="m2376.91 928.08c0 2.74-2.21 4.95-4.95 4.95-2.73 0-4.95-2.21-4.95-4.95 0-2.73 2.22-4.95 4.95-4.95 2.74 0 4.95 2.22 4.95 4.95z"/>
					<path id="&lt;Path&gt;" class="s4" d="m2268.17 1073.95c0 2.73-2.21 4.94-4.95 4.94-2.73 0-4.95-2.21-4.95-4.94 0-2.74 2.22-4.95 4.95-4.95 2.74 0 4.95 2.21 4.95 4.95z"/>
					<path id="&lt;Path&gt;" class="s4" d="m2092.91 1438.58c0 2.73-2.22 4.95-4.95 4.95-2.73 0-4.95-2.22-4.95-4.95 0-2.74 2.22-4.95 4.95-4.95 2.73 0 4.95 2.21 4.95 4.95z"/>
					<path id="&lt;Path&gt;" class="s4" d="m2377.28 1050.41c0 2.73-2.21 4.95-4.95 4.95-2.73 0-4.95-2.22-4.95-4.95 0-2.74 2.22-4.95 4.95-4.95 2.74 0 4.95 2.21 4.95 4.95z"/>
					<path id="&lt;Path&gt;" class="s4" d="m2206.71 1494.39c0 2.73-2.22 4.94-4.95 4.94-2.74 0-4.95-2.21-4.95-4.94 0-2.74 2.21-4.95 4.95-4.95 2.73 0 4.95 2.21 4.95 4.95z"/>
					<path id="&lt;Path&gt;" class="s4" d="m2431.52 1338.86c0 2.74-2.22 4.95-4.95 4.95-2.73 0-4.95-2.21-4.95-4.95 0-2.73 2.22-4.95 4.95-4.95 2.73 0 4.95 2.22 4.95 4.95z"/>
					<path id="&lt;Path&gt;" class="s4" d="m2069.45 1378.47c0 2.73-2.22 4.95-4.95 4.95-2.73 0-4.95-2.22-4.95-4.95 0-2.74 2.22-4.95 4.95-4.95 2.73 0 4.95 2.21 4.95 4.95z"/>
					<path id="&lt;Path&gt;" class="s4" d="m2185.38 923.03c0 2.74-2.22 4.95-4.95 4.95-2.73 0-4.95-2.21-4.95-4.95 0-2.73 2.22-4.95 4.95-4.95 2.73 0 4.95 2.22 4.95 4.95z"/>
					<path id="&lt;Path&gt;" class="s4" d="m2237.08 1323.02c0 2.73-2.22 4.95-4.95 4.95-2.74 0-4.95-2.22-4.95-4.95 0-2.74 2.21-4.95 4.95-4.95 2.73 0 4.95 2.21 4.95 4.95z"/>
					<path id="&lt;Path&gt;" class="s4" d="m2425.86 988.32c0 2.74-2.22 4.95-4.95 4.95-2.74 0-4.95-2.21-4.95-4.95 0-2.73 2.21-4.95 4.95-4.95 2.73 0 4.95 2.22 4.95 4.95z"/>
					<path id="&lt;Path&gt;" class="s4" d="m2109.58 916.78c0 2.73-2.22 4.95-4.95 4.95-2.73 0-4.95-2.22-4.95-4.95 0-2.73 2.22-4.95 4.95-4.95 2.73 0 4.95 2.22 4.95 4.95z"/>
					<path id="&lt;Path&gt;" class="s4" d="m2472.31 1204.05c0 2.73-2.22 4.95-4.95 4.95-2.74 0-4.95-2.22-4.95-4.95 0-2.73 2.21-4.95 4.95-4.95 2.73 0 4.95 2.22 4.95 4.95z"/>
					<path id="&lt;Path&gt;" class="s4" d="m1933.55 1045.68c0 2.73-2.22 4.95-4.95 4.95-2.74 0-4.95-2.22-4.95-4.95 0-2.74 2.21-4.95 4.95-4.95 2.73 0 4.95 2.21 4.95 4.95z"/>
					<path id="&lt;Path&gt;" class="s4" d="m2300.36 1024.86c0 2.74-2.22 4.95-4.95 4.95-2.73 0-4.95-2.21-4.95-4.95 0-2.73 2.22-4.95 4.95-4.95 2.73 0 4.95 2.22 4.95 4.95z"/>
					<path id="&lt;Path&gt;" class="s4" d="m2014.8 1333.04c0 2.73-2.21 4.95-4.95 4.95-2.73 0-4.95-2.22-4.95-4.95 0-2.74 2.22-4.95 4.95-4.95 2.74 0 4.95 2.21 4.95 4.95z"/>
					<path id="&lt;Path&gt;" class="s4" d="m2094.43 1163.52c0.01 2.73-2.21 4.95-4.94 4.95-2.74 0-4.95-2.22-4.95-4.95 0-2.74 2.21-4.95 4.95-4.95 2.73 0 4.95 2.21 4.95 4.95z"/>
				</g>
				<g id="&lt;Group&gt;">
					<path id="&lt;Path&gt;" class="s4" d="m1642.74 78.95c0 2.24-1.81 4.05-4.05 4.05-2.25 0-4.06-1.81-4.06-4.05 0-2.25 1.81-4.06 4.06-4.06 2.24 0 4.05 1.81 4.05 4.06z"/>
					<path id="&lt;Path&gt;" class="s4" d="m1298.72 127.78c0 2.24-1.81 4.06-4.05 4.06-2.24 0-4.06-1.82-4.06-4.06 0-2.24 1.82-4.06 4.06-4.06 2.24 0 4.05 1.82 4.05 4.06z"/>
					<path id="&lt;Path&gt;" class="s4" d="m1789.96 97.91c0 2.24-1.82 4.06-4.06 4.06-2.24 0-4.06-1.82-4.06-4.06 0-2.24 1.82-4.06 4.06-4.06 2.24 0 4.06 1.82 4.06 4.06z"/>
					<path id="&lt;Path&gt;" class="s4" d="m1570.72-249.39c0 2.24-1.82 4.05-4.06 4.05-2.24 0-4.05-1.81-4.05-4.05 0-2.24 1.81-4.06 4.05-4.06 2.24 0 4.06 1.82 4.06 4.06z"/>
					<path id="&lt;Path&gt;" class="s4" d="m1378.75 160.59c0 2.24-1.82 4.06-4.06 4.06-2.24 0-4.05-1.82-4.05-4.06 0-2.24 1.81-4.06 4.05-4.06 2.24 0 4.06 1.82 4.06 4.06z"/>
					<path id="&lt;Path&gt;" class="s4" d="m1380.56 226.28c0 2.24-1.82 4.06-4.06 4.06-2.24 0-4.06-1.82-4.06-4.06 0-2.24 1.82-4.06 4.06-4.06 2.24 0 4.06 1.82 4.06 4.06z"/>
					<path id="&lt;Path&gt;" class="s4" d="m1539.21 42.76c0 2.24-1.81 4.06-4.05 4.06-2.24 0-4.06-1.82-4.06-4.06 0-2.24 1.82-4.06 4.06-4.06 2.24 0 4.05 1.82 4.05 4.06z"/>
					<path id="&lt;Path&gt;" class="s4" d="m1664.62 127.97c0 2.24-1.81 4.06-4.06 4.06-2.24 0-4.05-1.82-4.05-4.06 0-2.24 1.81-4.05 4.05-4.05 2.25 0 4.06 1.81 4.06 4.05z"/>
					<path id="&lt;Path&gt;" class="s4" d="m1678.41 35.01c0 2.24-1.82 4.05-4.06 4.05-2.24 0-4.06-1.81-4.06-4.05 0-2.24 1.82-4.06 4.06-4.06 2.24 0 4.06 1.82 4.06 4.06z"/>
					<path id="&lt;Path&gt;" class="s4" d="m1739.59 20.16c0 2.24-1.82 4.06-4.06 4.06-2.24 0-4.05-1.82-4.05-4.06 0-2.24 1.81-4.05 4.05-4.05 2.24 0 4.06 1.81 4.06 4.05z"/>
					<path id="&lt;Path&gt;" class="s4" d="m1707.07-133.86c0 2.25-1.82 4.06-4.06 4.06-2.24 0-4.05-1.81-4.05-4.06 0-2.24 1.81-4.05 4.05-4.05 2.24 0 4.06 1.81 4.06 4.05z"/>
					<path id="&lt;Path&gt;" class="s4" d="m1340.32 112.08c0 2.24-1.82 4.06-4.06 4.06-2.24 0-4.06-1.82-4.06-4.06 0-2.24 1.82-4.06 4.06-4.06 2.24 0 4.06 1.82 4.06 4.06z"/>
					<path id="&lt;Path&gt;" class="s4" d="m1527.74 185.6c0 2.24-1.81 4.06-4.05 4.06-2.24 0-4.06-1.82-4.06-4.06 0-2.24 1.82-4.06 4.06-4.06 2.24 0 4.05 1.82 4.05 4.06z"/>
					<path id="&lt;Path&gt;" class="s4" d="m1621.99-230.31c0 2.24-1.82 4.06-4.06 4.06-2.24 0-4.05-1.82-4.05-4.06 0-2.24 1.81-4.06 4.05-4.06 2.24 0 4.06 1.82 4.06 4.06z"/>
					<path id="&lt;Path&gt;" class="s4" d="m1283.75 65.48c0 2.24-1.81 4.06-4.06 4.06-2.24 0-4.05-1.82-4.05-4.06 0-2.24 1.81-4.06 4.05-4.06 2.25 0 4.06 1.82 4.06 4.06z"/>
					<path id="&lt;Path&gt;" class="s4" d="m1674.44-218.87c0 2.24-1.81 4.05-4.05 4.05-2.25 0-4.06-1.81-4.06-4.05 0-2.25 1.81-4.06 4.06-4.06 2.24 0 4.05 1.81 4.05 4.06z"/>
					<path id="&lt;Path&gt;" class="s4" d="m1434.93-12.01c0 2.24-1.81 4.06-4.06 4.06-2.24 0-4.05-1.82-4.05-4.06 0-2.24 1.81-4.06 4.05-4.06 2.25 0 4.06 1.82 4.06 4.06z"/>
					<path id="&lt;Path&gt;" class="s4" d="m1337.48 51.1c0 2.24-1.81 4.05-4.05 4.05-2.24 0-4.06-1.81-4.06-4.05 0-2.24 1.82-4.06 4.06-4.06 2.24 0 4.05 1.82 4.05 4.06z"/>
					<path id="&lt;Path&gt;" class="s4" d="m1507.11 85.97c0 2.24-1.82 4.05-4.06 4.05-2.24 0-4.06-1.81-4.06-4.05 0-2.24 1.82-4.06 4.06-4.06 2.24 0 4.06 1.82 4.06 4.06z"/>
					<path id="&lt;Path&gt;" class="s4" d="m1381.24-196.04c0 2.24-1.82 4.06-4.06 4.06-2.24 0-4.06-1.82-4.06-4.06 0-2.24 1.82-4.06 4.06-4.06 2.24 0 4.06 1.82 4.06 4.06z"/>
					<path id="&lt;Path&gt;" class="s4" d="m1484.06 134.86c0 2.25-1.81 4.06-4.06 4.06-2.24 0-4.05-1.81-4.05-4.06 0-2.24 1.81-4.05 4.05-4.05 2.25 0 4.06 1.81 4.06 4.05z"/>
					<path id="&lt;Path&gt;" class="s4" d="m1585.17-108.79c0 2.24-1.81 4.06-4.05 4.06-2.24 0-4.06-1.82-4.06-4.06 0-2.24 1.82-4.06 4.06-4.06 2.24 0 4.05 1.82 4.05 4.06z"/>
					<path id="&lt;Path&gt;" class="s4" d="m1725.06 80.39c0 2.24-1.82 4.06-4.06 4.06-2.24 0-4.05-1.82-4.05-4.06 0-2.24 1.81-4.06 4.05-4.06 2.24 0 4.06 1.82 4.06 4.06z"/>
					<path id="&lt;Path&gt;" class="s4" d="m1748.59-35.02c0 2.24-1.81 4.06-4.05 4.06-2.24 0-4.06-1.82-4.06-4.06 0-2.24 1.82-4.06 4.06-4.06 2.24 0 4.05 1.82 4.05 4.06z"/>
					<path id="&lt;Path&gt;" class="s4" d="m1327.52-138.42c0 2.24-1.82 4.06-4.06 4.06-2.24 0-4.06-1.82-4.06-4.06 0-2.24 1.82-4.06 4.06-4.06 2.24 0 4.06 1.82 4.06 4.06z"/>
					<path id="&lt;Path&gt;" class="s4" d="m1394.8 32.43c0 2.24-1.81 4.06-4.05 4.06-2.24 0-4.06-1.82-4.06-4.06 0-2.24 1.82-4.06 4.06-4.06 2.24 0 4.05 1.82 4.05 4.06z"/>
					<path id="&lt;Path&gt;" class="s4" d="m1546.66 134.93c0 2.24-1.81 4.05-4.06 4.05-2.24 0-4.05-1.81-4.05-4.05 0-2.24 1.81-4.06 4.05-4.06 2.25 0 4.06 1.82 4.06 4.06z"/>
					<path id="&lt;Path&gt;" class="s4" d="m1445.42-176.23c0 2.24-1.82 4.05-4.06 4.05-2.24 0-4.05-1.81-4.05-4.05 0-2.25 1.81-4.06 4.05-4.06 2.24 0 4.06 1.81 4.06 4.06z"/>
					<path id="&lt;Path&gt;" class="s4" d="m1596.59 30.9c0 2.24-1.81 4.06-4.05 4.06-2.25 0-4.06-1.82-4.06-4.06 0-2.24 1.81-4.05 4.06-4.05 2.24 0 4.05 1.81 4.05 4.05z"/>
					<path id="&lt;Path&gt;" class="s4" d="m1529.07-81.18c0 2.24-1.82 4.05-4.06 4.05-2.24 0-4.05-1.81-4.05-4.05 0-2.24 1.81-4.06 4.05-4.06 2.24 0 4.06 1.82 4.06 4.06z"/>
					<path id="&lt;Path&gt;" class="s4" d="m1512.11-249.18c0 2.24-1.82 4.05-4.06 4.05-2.24 0-4.06-1.81-4.06-4.05 0-2.24 1.82-4.06 4.06-4.06 2.24 0 4.06 1.82 4.06 4.06z"/>
					<path id="&lt;Path&gt;" class="s4" d="m1579.38 87.47c0 2.24-1.82 4.06-4.06 4.06-2.24 0-4.05-1.82-4.05-4.06 0-2.24 1.81-4.06 4.05-4.06 2.24 0 4.06 1.82 4.06 4.06z"/>
					<path id="&lt;Path&gt;" class="s4" d="m1525.54-139.25c0 2.24-1.81 4.05-4.06 4.05-2.24 0-4.05-1.81-4.05-4.05 0-2.24 1.81-4.06 4.05-4.06 2.25 0 4.06 1.82 4.06 4.06z"/>
					<path id="&lt;Path&gt;" class="s4" d="m1804.97-17.14c0 2.24-1.82 4.06-4.06 4.06-2.24 0-4.06-1.82-4.06-4.06 0-2.24 1.82-4.06 4.06-4.06 2.24 0 4.06 1.82 4.06 4.06z"/>
					<path id="&lt;Path&gt;" class="s4" d="m1514.53 281.64c0 2.24-1.81 4.06-4.05 4.06-2.24 0-4.06-1.82-4.06-4.06 0-2.24 1.82-4.06 4.06-4.06 2.24 0 4.05 1.82 4.05 4.06z"/>
					<path id="&lt;Path&gt;" class="s4" d="m1380.72-34.17c0 2.24-1.82 4.06-4.06 4.06-2.24 0-4.05-1.82-4.05-4.06 0-2.24 1.81-4.06 4.05-4.06 2.24 0 4.06 1.82 4.06 4.06z"/>
					<path id="&lt;Path&gt;" class="s4" d="m1426.33 208.43c0 2.24-1.81 4.06-4.05 4.06-2.24 0-4.06-1.82-4.06-4.06 0-2.24 1.82-4.05 4.06-4.05 2.24 0 4.05 1.81 4.05 4.05z"/>
					<path id="&lt;Path&gt;" class="s4" d="m1714.55 139.14c0 2.24-1.82 4.06-4.06 4.06-2.24 0-4.06-1.82-4.06-4.06 0-2.24 1.82-4.05 4.06-4.05 2.24 0 4.06 1.81 4.06 4.05z"/>
					<path id="&lt;Path&gt;" class="s4" d="m1425.22-77.77c0 2.24-1.82 4.06-4.06 4.06-2.24 0-4.06-1.82-4.06-4.06 0-2.24 1.82-4.05 4.06-4.05 2.24 0 4.06 1.81 4.06 4.05z"/>
					<path id="&lt;Path&gt;" class="s4" d="m1613.44-157.49c0 2.24-1.82 4.05-4.06 4.05-2.24 0-4.05-1.81-4.05-4.05 0-2.24 1.81-4.06 4.05-4.06 2.24 0 4.06 1.82 4.06 4.06z"/>
					<path id="&lt;Path&gt;" class="s4" d="m1553.17 237.11c0 2.24-1.82 4.05-4.06 4.05-2.24 0-4.06-1.81-4.06-4.05 0-2.24 1.82-4.06 4.06-4.06 2.24 0 4.06 1.82 4.06 4.06z"/>
					<path id="&lt;Path&gt;" class="s4" d="m1624.95 248.36c0 2.24-1.82 4.05-4.06 4.05-2.24 0-4.06-1.81-4.06-4.05 0-2.24 1.82-4.06 4.06-4.06 2.24 0 4.06 1.82 4.06 4.06z"/>
					<path id="&lt;Path&gt;" class="s4" d="m1278.51-0.6c0 2.24-1.81 4.06-4.06 4.06-2.24 0-4.05-1.82-4.05-4.06 0-2.24 1.81-4.05 4.05-4.05 2.25 0 4.06 1.81 4.06 4.05z"/>
					<path id="&lt;Path&gt;" class="s4" d="m1440.59 94.26c0 2.24-1.82 4.05-4.06 4.05-2.24 0-4.06-1.81-4.06-4.05 0-2.25 1.82-4.06 4.06-4.06 2.24 0 4.06 1.81 4.06 4.06z"/>
					<path id="&lt;Path&gt;" class="s4" d="m1481.89-52.2c0 2.24-1.82 4.05-4.06 4.05-2.24 0-4.06-1.81-4.06-4.05 0-2.25 1.82-4.06 4.06-4.06 2.24 0 4.06 1.81 4.06 4.06z"/>
					<path id="&lt;Path&gt;" class="s4" d="m1687.94-31.79c0 2.24-1.82 4.06-4.06 4.06-2.24 0-4.05-1.82-4.05-4.06 0-2.24 1.81-4.06 4.05-4.06 2.24 0 4.06 1.82 4.06 4.06z"/>
					<path id="&lt;Path&gt;" class="s4" d="m1456.86 47.69c0 2.24-1.82 4.06-4.06 4.06-2.24 0-4.06-1.82-4.06-4.06 0-2.24 1.82-4.06 4.06-4.06 2.24 0 4.06 1.82 4.06 4.06z"/>
					<path id="&lt;Path&gt;" class="s4" d="m1584.48-43.48c0 2.24-1.81 4.05-4.05 4.05-2.24 0-4.06-1.81-4.06-4.05 0-2.24 1.82-4.06 4.06-4.06 2.24 0 4.05 1.82 4.05 4.06z"/>
					<path id="&lt;Path&gt;" class="s4" d="m1541.6-16.48c0 2.24-1.82 4.06-4.06 4.06-2.24 0-4.06-1.82-4.06-4.06 0-2.24 1.82-4.06 4.06-4.06 2.24 0 4.06 1.82 4.06 4.06z"/>
					<path id="&lt;Path&gt;" class="s4" d="m1442.99 262.69c0 2.24-1.82 4.06-4.06 4.06-2.24 0-4.06-1.82-4.06-4.06 0-2.24 1.82-4.06 4.06-4.06 2.24 0 4.06 1.82 4.06 4.06z"/>
					<path id="&lt;Path&gt;" class="s4" d="m1725.3 201.69c0 2.24-1.82 4.05-4.06 4.05-2.24 0-4.06-1.81-4.06-4.05 0-2.24 1.82-4.06 4.06-4.06 2.24 0 4.06 1.82 4.06 4.06z"/>
					<path id="&lt;Path&gt;" class="s4" d="m1395.47-138.73c0 2.24-1.82 4.05-4.06 4.05-2.24 0-4.06-1.81-4.06-4.05 0-2.24 1.82-4.06 4.06-4.06 2.24 0 4.06 1.82 4.06 4.06z"/>
					<path id="&lt;Path&gt;" class="s4" d="m1658.83 188.01c0 2.24-1.81 4.06-4.05 4.06-2.24 0-4.06-1.82-4.06-4.06 0-2.24 1.82-4.05 4.06-4.05 2.24 0 4.05 1.81 4.05 4.05z"/>
					<path id="&lt;Path&gt;" class="s4" d="m1297.33-69.4c0 2.24-1.81 4.05-4.05 4.05-2.24 0-4.06-1.81-4.06-4.05 0-2.24 1.82-4.06 4.06-4.06 2.24 0 4.05 1.82 4.05 4.06z"/>
					<path id="&lt;Path&gt;" class="s4" d="m1387.65 93.43c0 2.24-1.82 4.05-4.06 4.05-2.24 0-4.05-1.81-4.05-4.05 0-2.24 1.81-4.06 4.05-4.06 2.24 0 4.06 1.82 4.06 4.06z"/>
					<path id="&lt;Path&gt;" class="s4" d="m1590.83 192.56c0 2.24-1.81 4.05-4.05 4.05-2.24 0-4.06-1.81-4.06-4.05 0-2.24 1.82-4.06 4.06-4.06 2.24 0 4.05 1.82 4.05 4.06z"/>
					<path id="&lt;Path&gt;" class="s4" d="m1334.46 180.48c0 2.24-1.82 4.05-4.06 4.05-2.24 0-4.06-1.81-4.06-4.05 0-2.25 1.82-4.06 4.06-4.06 2.24 0 4.06 1.81 4.06 4.06z"/>
					<path id="&lt;Path&gt;" class="s4" d="m1446.28-232.64c0 2.24-1.81 4.06-4.05 4.06-2.24 0-4.06-1.82-4.06-4.06 0-2.24 1.82-4.05 4.06-4.05 2.24 0 4.05 1.81 4.05 4.05z"/>
					<path id="&lt;Path&gt;" class="s4" d="m1790.99-79.59c0 2.25-1.82 4.06-4.06 4.06-2.24 0-4.06-1.81-4.06-4.06 0-2.24 1.82-4.05 4.06-4.05 2.24 0 4.06 1.81 4.06 4.05z"/>
					<path id="&lt;Path&gt;" class="s4" d="m1677.73 245.07c0 2.24-1.82 4.06-4.06 4.06-2.24 0-4.06-1.82-4.06-4.06 0-2.24 1.82-4.06 4.06-4.06 2.24 0 4.06 1.82 4.06 4.06z"/>
					<path id="&lt;Path&gt;" class="s4" d="m1662.55-166.87c0 2.24-1.82 4.05-4.06 4.05-2.24 0-4.05-1.81-4.05-4.05 0-2.24 1.81-4.06 4.05-4.06 2.24 0 4.06 1.82 4.06 4.06z"/>
					<path id="&lt;Path&gt;" class="s4" d="m1466-120.82c0 2.24-1.81 4.05-4.05 4.05-2.25 0-4.06-1.81-4.06-4.05 0-2.24 1.81-4.06 4.06-4.06 2.24 0 4.05 1.82 4.05 4.06z"/>
					<path id="&lt;Path&gt;" class="s4" d="m1334.35-9.47c0 2.24-1.81 4.06-4.05 4.06-2.24 0-4.06-1.82-4.06-4.06 0-2.24 1.82-4.06 4.06-4.06 2.24 0 4.05 1.82 4.05 4.06z"/>
					<path id="&lt;Path&gt;" class="s4" d="m1633.99-5.1c0 2.24-1.82 4.06-4.06 4.06-2.24 0-4.06-1.82-4.06-4.06 0-2.24 1.82-4.06 4.06-4.06 2.24 0 4.06 1.82 4.06 4.06z"/>
					<path id="&lt;Path&gt;" class="s4" d="m1723.46-183.86c0 2.24-1.82 4.06-4.06 4.06-2.24 0-4.06-1.82-4.06-4.06 0-2.24 1.82-4.05 4.06-4.05 2.24 0 4.06 1.81 4.06 4.05z"/>
					<path id="&lt;Path&gt;" class="s4" d="m1634.32-64.29c0 2.25-1.82 4.06-4.06 4.06-2.24 0-4.06-1.81-4.06-4.06 0-2.24 1.82-4.05 4.06-4.05 2.24 0 4.06 1.81 4.06 4.05z"/>
					<path id="&lt;Path&gt;" class="s4" d="m1490.64 234.62c0 2.24-1.81 4.06-4.05 4.06-2.24 0-4.06-1.82-4.06-4.06 0-2.24 1.82-4.05 4.06-4.05 2.24 0 4.05 1.81 4.05 4.05z"/>
					<path id="&lt;Path&gt;" class="s4" d="m1723.76-83.58c0 2.24-1.82 4.06-4.06 4.06-2.24 0-4.06-1.82-4.06-4.06 0-2.24 1.82-4.06 4.06-4.06 2.24 0 4.06 1.82 4.06 4.06z"/>
					<path id="&lt;Path&gt;" class="s4" d="m1583.93 280.37c0 2.24-1.82 4.06-4.06 4.06-2.24 0-4.05-1.82-4.05-4.06 0-2.24 1.81-4.06 4.05-4.06 2.24 0 4.06 1.82 4.06 4.06z"/>
					<path id="&lt;Path&gt;" class="s4" d="m1768.22 152.88c0 2.24-1.82 4.06-4.06 4.06-2.24 0-4.05-1.82-4.05-4.06 0-2.24 1.81-4.05 4.05-4.05 2.24 0 4.06 1.81 4.06 4.05z"/>
					<path id="&lt;Path&gt;" class="s4" d="m1471.41 185.35c0 2.24-1.81 4.05-4.05 4.05-2.25 0-4.06-1.81-4.06-4.05 0-2.24 1.81-4.06 4.06-4.06 2.24 0 4.05 1.82 4.05 4.06z"/>
					<path id="&lt;Path&gt;" class="s4" d="m1566.45-188c0 2.24-1.82 4.06-4.06 4.06-2.24 0-4.06-1.82-4.06-4.06 0-2.24 1.82-4.06 4.06-4.06 2.24 0 4.06 1.82 4.06 4.06z"/>
					<path id="&lt;Path&gt;" class="s4" d="m1608.83 139.89c0 2.24-1.82 4.06-4.06 4.06-2.24 0-4.06-1.82-4.06-4.06 0-2.24 1.82-4.05 4.06-4.05 2.24 0 4.06 1.81 4.06 4.05z"/>
					<path id="&lt;Path&gt;" class="s4" d="m1763.58-134.48c0 2.24-1.82 4.06-4.06 4.06-2.24 0-4.06-1.82-4.06-4.06 0-2.24 1.82-4.05 4.06-4.05 2.24 0 4.06 1.81 4.06 4.05z"/>
					<path id="&lt;Path&gt;" class="s4" d="m1504.31-193.12c0 2.24-1.82 4.05-4.06 4.05-2.24 0-4.06-1.81-4.06-4.05 0-2.24 1.82-4.06 4.06-4.06 2.24 0 4.06 1.82 4.06 4.06z"/>
					<path id="&lt;Path&gt;" class="s4" d="m1801.66 42.37c0 2.24-1.82 4.05-4.06 4.05-2.24 0-4.06-1.81-4.06-4.05 0-2.24 1.82-4.06 4.06-4.06 2.24 0 4.06 1.82 4.06 4.06z"/>
					<path id="&lt;Path&gt;" class="s4" d="m1360.01-87.46c0 2.24-1.82 4.06-4.06 4.06-2.24 0-4.06-1.82-4.06-4.06 0-2.24 1.82-4.06 4.06-4.06 2.24 0 4.06 1.82 4.06 4.06z"/>
					<path id="&lt;Path&gt;" class="s4" d="m1660.7-104.52c0 2.24-1.81 4.06-4.06 4.06-2.24 0-4.05-1.82-4.05-4.06 0-2.24 1.81-4.06 4.05-4.06 2.25 0 4.06 1.82 4.06 4.06z"/>
					<path id="&lt;Path&gt;" class="s4" d="m1426.61 148.11c0 2.24-1.81 4.05-4.05 4.05-2.24 0-4.06-1.81-4.06-4.05 0-2.24 1.82-4.06 4.06-4.06 2.24 0 4.05 1.82 4.05 4.06z"/>
					<path id="&lt;Path&gt;" class="s4" d="m1491.9 9.14c0 2.24-1.82 4.06-4.06 4.06-2.24 0-4.06-1.82-4.06-4.06 0-2.24 1.82-4.06 4.06-4.06 2.24 0 4.06 1.82 4.06 4.06z"/>
				</g>
				<g id="&lt;Group&gt;">
					<path id="&lt;Path&gt;" class="s5" d="m434.79 397.38c0 2.1-1.69 3.79-3.79 3.79-2.09 0-3.79-1.69-3.79-3.79 0-2.09 1.7-3.79 3.79-3.79 2.1 0 3.79 1.7 3.79 3.79z"/>
					<path id="&lt;Path&gt;" class="s5" d="m113.27 443.02c0 2.1-1.7 3.8-3.79 3.8-2.09 0-3.79-1.7-3.79-3.8 0-2.09 1.7-3.79 3.79-3.79 2.09 0 3.79 1.7 3.79 3.79z"/>
					<path id="&lt;Path&gt;" class="s5" d="m572.38 415.11c0 2.09-1.7 3.79-3.79 3.79-2.09 0-3.79-1.7-3.79-3.79 0-2.1 1.7-3.79 3.79-3.79 2.09 0 3.79 1.69 3.79 3.79z"/>
					<path id="&lt;Path&gt;" class="s5" d="m367.48 90.52c0 2.09-1.7 3.79-3.79 3.79-2.1 0-3.79-1.7-3.79-3.79 0-2.1 1.69-3.79 3.79-3.79 2.09 0 3.79 1.69 3.79 3.79z"/>
					<path id="&lt;Path&gt;" class="s5" d="m188.07 473.69c0 2.09-1.7 3.79-3.8 3.79-2.09 0-3.79-1.7-3.79-3.79 0-2.1 1.7-3.79 3.79-3.79 2.1 0 3.8 1.69 3.8 3.79z"/>
					<path id="&lt;Path&gt;" class="s5" d="m189.75 535.08c0 2.1-1.69 3.79-3.79 3.79-2.09 0-3.79-1.69-3.79-3.79 0-2.09 1.7-3.79 3.79-3.79 2.1 0 3.79 1.7 3.79 3.79z"/>
					<path id="&lt;Path&gt;" class="s5" d="m338.03 363.57c0 2.09-1.69 3.79-3.79 3.79-2.09 0-3.79-1.7-3.79-3.79 0-2.1 1.7-3.8 3.79-3.8 2.1 0 3.79 1.7 3.79 3.8z"/>
					<path id="&lt;Path&gt;" class="s5" d="m455.24 443.2c0 2.1-1.7 3.8-3.79 3.8-2.09 0-3.79-1.7-3.79-3.8 0-2.09 1.7-3.79 3.79-3.79 2.09 0 3.79 1.7 3.79 3.79z"/>
					<path id="&lt;Path&gt;" class="s5" d="m468.13 356.32c0 2.09-1.7 3.79-3.79 3.79-2.1 0-3.8-1.7-3.8-3.79 0-2.1 1.7-3.79 3.8-3.79 2.09 0 3.79 1.69 3.79 3.79z"/>
					<path id="&lt;Path&gt;" class="s5" d="m525.31 342.45c0 2.09-1.7 3.79-3.8 3.79-2.09 0-3.79-1.7-3.79-3.79 0-2.1 1.7-3.8 3.79-3.8 2.1 0 3.8 1.7 3.8 3.8z"/>
					<path id="&lt;Path&gt;" class="s5" d="m494.91 198.5c0 2.09-1.7 3.79-3.79 3.79-2.09 0-3.79-1.7-3.79-3.79 0-2.1 1.7-3.79 3.79-3.79 2.09 0 3.79 1.69 3.79 3.79z"/>
					<path id="&lt;Path&gt;" class="s5" d="m152.14 428.35c0 2.1-1.69 3.8-3.79 3.8-2.09 0-3.79-1.7-3.79-3.8 0-2.09 1.7-3.79 3.79-3.79 2.1 0 3.79 1.7 3.79 3.79z"/>
					<path id="&lt;Path&gt;" class="s5" d="m327.32 497.06c0 2.1-1.7 3.79-3.8 3.79-2.09 0-3.79-1.69-3.79-3.79 0-2.09 1.7-3.79 3.79-3.79 2.1 0 3.8 1.7 3.8 3.79z"/>
					<path id="&lt;Path&gt;" class="s5" d="m415.4 108.35c0 2.1-1.7 3.79-3.79 3.79-2.1 0-3.79-1.69-3.79-3.79 0-2.09 1.69-3.79 3.79-3.79 2.09 0 3.79 1.7 3.79 3.79z"/>
					<path id="&lt;Path&gt;" class="s5" d="m99.28 384.8c0 2.09-1.7 3.79-3.79 3.79-2.1 0-3.79-1.7-3.79-3.79 0-2.1 1.69-3.79 3.79-3.79 2.09 0 3.79 1.69 3.79 3.79z"/>
					<path id="&lt;Path&gt;" class="s5" d="m464.42 119.04c0 2.09-1.7 3.79-3.79 3.79-2.1 0-3.79-1.7-3.79-3.79 0-2.09 1.69-3.79 3.79-3.79 2.09 0 3.79 1.7 3.79 3.79z"/>
					<path id="&lt;Path&gt;" class="s5" d="m240.57 312.38c0 2.09-1.69 3.79-3.79 3.79-2.09 0-3.79-1.7-3.79-3.79 0-2.1 1.7-3.8 3.79-3.8 2.1 0 3.79 1.7 3.79 3.8z"/>
					<path id="&lt;Path&gt;" class="s5" d="m149.5 371.36c0 2.09-1.7 3.79-3.79 3.79-2.1 0-3.8-1.7-3.8-3.79 0-2.1 1.7-3.8 3.8-3.8 2.09 0 3.79 1.7 3.79 3.8z"/>
					<path id="&lt;Path&gt;" class="s5" d="m308.03 403.95c0 2.09-1.7 3.79-3.79 3.79-2.1 0-3.79-1.7-3.79-3.79 0-2.1 1.69-3.8 3.79-3.8 2.09 0 3.79 1.7 3.79 3.8z"/>
					<path id="&lt;Path&gt;" class="s5" d="m190.39 140.38c0 2.09-1.7 3.79-3.79 3.79-2.1 0-3.8-1.7-3.8-3.79 0-2.09 1.7-3.79 3.8-3.79 2.09 0 3.79 1.7 3.79 3.79z"/>
					<path id="&lt;Path&gt;" class="s5" d="m286.49 449.65c0 2.09-1.7 3.79-3.79 3.79-2.1 0-3.79-1.7-3.79-3.79 0-2.1 1.69-3.8 3.79-3.8 2.09 0 3.79 1.7 3.79 3.8z"/>
					<path id="&lt;Path&gt;" class="s5" d="m380.99 221.93c0 2.09-1.7 3.79-3.79 3.79-2.1 0-3.8-1.7-3.8-3.79 0-2.1 1.7-3.8 3.8-3.8 2.09 0 3.79 1.7 3.79 3.8z"/>
					<path id="&lt;Path&gt;" class="s5" d="m511.73 398.73c0 2.1-1.7 3.8-3.79 3.8-2.1 0-3.8-1.7-3.8-3.8 0-2.09 1.7-3.79 3.8-3.79 2.09 0 3.79 1.7 3.79 3.79z"/>
					<path id="&lt;Path&gt;" class="s5" d="m533.72 290.87c0 2.1-1.7 3.79-3.79 3.79-2.09 0-3.79-1.69-3.79-3.79 0-2.09 1.7-3.79 3.79-3.79 2.09 0 3.79 1.7 3.79 3.79z"/>
					<path id="&lt;Path&gt;" class="s5" d="m140.18 194.23c0 2.1-1.7 3.8-3.79 3.8-2.1 0-3.79-1.7-3.79-3.8 0-2.09 1.69-3.79 3.79-3.79 2.09 0 3.79 1.7 3.79 3.79z"/>
					<path id="&lt;Path&gt;" class="s5" d="m203.07 353.91c0 2.09-1.7 3.79-3.79 3.79-2.1 0-3.79-1.7-3.79-3.79 0-2.09 1.69-3.79 3.79-3.79 2.09 0 3.79 1.7 3.79 3.79z"/>
					<path id="&lt;Path&gt;" class="s5" d="m345 449.7c0 2.1-1.7 3.8-3.8 3.8-2.09 0-3.79-1.7-3.79-3.8 0-2.09 1.7-3.79 3.79-3.79 2.1 0 3.8 1.7 3.8 3.79z"/>
					<path id="&lt;Path&gt;" class="s5" d="m250.37 158.89c0 2.1-1.69 3.79-3.79 3.79-2.09 0-3.79-1.69-3.79-3.79 0-2.09 1.7-3.79 3.79-3.79 2.1 0 3.79 1.7 3.79 3.79z"/>
					<path id="&lt;Path&gt;" class="s5" d="m391.66 352.48c0 2.1-1.7 3.8-3.79 3.8-2.1 0-3.79-1.7-3.79-3.8 0-2.09 1.69-3.79 3.79-3.79 2.09 0 3.79 1.7 3.79 3.79z"/>
					<path id="&lt;Path&gt;" class="s5" d="m328.56 247.73c0 2.09-1.7 3.79-3.8 3.79-2.09 0-3.79-1.7-3.79-3.79 0-2.1 1.7-3.8 3.79-3.8 2.1 0 3.8 1.7 3.8 3.8z"/>
					<path id="&lt;Path&gt;" class="s5" d="m312.7 90.71c0 2.1-1.7 3.8-3.79 3.8-2.1 0-3.79-1.7-3.79-3.8 0-2.09 1.69-3.79 3.79-3.79 2.09 0 3.79 1.7 3.79 3.79z"/>
					<path id="&lt;Path&gt;" class="s5" d="m375.57 405.35c0 2.09-1.69 3.79-3.79 3.79-2.09 0-3.79-1.7-3.79-3.79 0-2.09 1.7-3.79 3.79-3.79 2.1 0 3.79 1.7 3.79 3.79z"/>
					<path id="&lt;Path&gt;" class="s5" d="m325.26 193.45c0 2.1-1.7 3.8-3.79 3.8-2.1 0-3.8-1.7-3.8-3.8 0-2.09 1.7-3.79 3.8-3.79 2.09 0 3.79 1.7 3.79 3.79z"/>
					<path id="&lt;Path&gt;" class="s5" d="m586.41 307.58c0 2.1-1.7 3.79-3.79 3.79-2.1 0-3.8-1.69-3.8-3.79 0-2.09 1.7-3.79 3.8-3.79 2.09 0 3.79 1.7 3.79 3.79z"/>
					<path id="&lt;Path&gt;" class="s5" d="m314.97 586.82c0 2.1-1.7 3.79-3.79 3.79-2.1 0-3.79-1.69-3.79-3.79 0-2.09 1.69-3.79 3.79-3.79 2.09 0 3.79 1.7 3.79 3.79z"/>
					<path id="&lt;Path&gt;" class="s5" d="m189.91 291.66c0 2.1-1.7 3.8-3.79 3.8-2.1 0-3.8-1.7-3.8-3.8 0-2.09 1.7-3.79 3.8-3.79 2.09 0 3.79 1.7 3.79 3.79z"/>
					<path id="&lt;Path&gt;" class="s5" d="m232.54 518.4c0 2.1-1.7 3.8-3.79 3.8-2.1 0-3.8-1.7-3.8-3.8 0-2.09 1.7-3.79 3.8-3.79 2.09 0 3.79 1.7 3.79 3.79z"/>
					<path id="&lt;Path&gt;" class="s5" d="m501.9 453.64c0 2.1-1.7 3.8-3.79 3.8-2.1 0-3.79-1.7-3.79-3.8 0-2.09 1.69-3.79 3.79-3.79 2.09 0 3.79 1.7 3.79 3.79z"/>
					<path id="&lt;Path&gt;" class="s5" d="m231.49 250.92c0 2.09-1.69 3.79-3.79 3.79-2.09 0-3.79-1.7-3.79-3.79 0-2.09 1.7-3.79 3.79-3.79 2.1 0 3.79 1.7 3.79 3.79z"/>
					<path id="&lt;Path&gt;" class="s5" d="m407.41 176.41c0 2.09-1.7 3.79-3.79 3.79-2.1 0-3.8-1.7-3.8-3.79 0-2.1 1.7-3.79 3.8-3.79 2.09 0 3.79 1.69 3.79 3.79z"/>
					<path id="&lt;Path&gt;" class="s5" d="m351.08 545.2c0 2.1-1.7 3.79-3.8 3.79-2.09 0-3.79-1.69-3.79-3.79 0-2.09 1.7-3.79 3.79-3.79 2.1 0 3.8 1.7 3.8 3.79z"/>
					<path id="&lt;Path&gt;" class="s5" d="m418.16 555.72c0 2.09-1.7 3.79-3.79 3.79-2.09 0-3.79-1.7-3.79-3.79 0-2.1 1.7-3.8 3.79-3.8 2.09 0 3.79 1.7 3.79 3.8z"/>
					<path id="&lt;Path&gt;" class="s5" d="m94.38 323.04c0 2.1-1.7 3.8-3.79 3.8-2.09 0-3.79-1.7-3.79-3.8 0-2.09 1.7-3.79 3.79-3.79 2.09 0 3.79 1.7 3.79 3.79z"/>
					<path id="&lt;Path&gt;" class="s5" d="m245.86 411.69c0 2.1-1.7 3.79-3.79 3.79-2.1 0-3.8-1.69-3.8-3.79 0-2.09 1.7-3.79 3.8-3.79 2.09 0 3.79 1.7 3.79 3.79z"/>
					<path id="&lt;Path&gt;" class="s5" d="m284.46 274.81c0 2.09-1.7 3.79-3.79 3.79-2.1 0-3.8-1.7-3.8-3.79 0-2.09 1.7-3.79 3.8-3.79 2.09 0 3.79 1.7 3.79 3.79z"/>
					<path id="&lt;Path&gt;" class="s5" d="m477.03 293.89c0 2.1-1.69 3.79-3.79 3.79-2.09 0-3.79-1.69-3.79-3.79 0-2.09 1.7-3.79 3.79-3.79 2.1 0 3.79 1.7 3.79 3.79z"/>
					<path id="&lt;Path&gt;" class="s5" d="m261.06 368.17c0 2.1-1.7 3.8-3.79 3.8-2.09 0-3.79-1.7-3.79-3.8 0-2.09 1.7-3.79 3.79-3.79 2.09 0 3.79 1.7 3.79 3.79z"/>
					<path id="&lt;Path&gt;" class="s5" d="m380.34 282.96c0 2.1-1.69 3.79-3.79 3.79-2.09 0-3.79-1.69-3.79-3.79 0-2.09 1.7-3.79 3.79-3.79 2.1 0 3.79 1.7 3.79 3.79z"/>
					<path id="&lt;Path&gt;" class="s5" d="m340.26 308.2c0 2.09-1.69 3.79-3.79 3.79-2.09 0-3.79-1.7-3.79-3.79 0-2.1 1.7-3.79 3.79-3.79 2.1 0 3.79 1.69 3.79 3.79z"/>
					<path id="&lt;Path&gt;" class="s5" d="m248.1 569.11c0 2.1-1.69 3.79-3.79 3.79-2.09 0-3.79-1.69-3.79-3.79 0-2.09 1.7-3.79 3.79-3.79 2.1 0 3.79 1.7 3.79 3.79z"/>
					<path id="&lt;Path&gt;" class="s5" d="m511.95 512.1c0 2.09-1.7 3.79-3.79 3.79-2.1 0-3.8-1.7-3.8-3.79 0-2.1 1.7-3.79 3.8-3.79 2.09 0 3.79 1.69 3.79 3.79z"/>
					<path id="&lt;Path&gt;" class="s5" d="m203.69 193.94c0 2.1-1.7 3.79-3.79 3.79-2.1 0-3.79-1.69-3.79-3.79 0-2.09 1.69-3.79 3.79-3.79 2.09 0 3.79 1.7 3.79 3.79z"/>
					<path id="&lt;Path&gt;" class="s5" d="m449.83 499.32c0 2.09-1.7 3.79-3.79 3.79-2.09 0-3.79-1.7-3.79-3.79 0-2.1 1.7-3.79 3.79-3.79 2.09 0 3.79 1.69 3.79 3.79z"/>
					<path id="&lt;Path&gt;" class="s5" d="m111.97 258.74c0 2.09-1.69 3.79-3.79 3.79-2.09 0-3.79-1.7-3.79-3.79 0-2.1 1.7-3.8 3.79-3.8 2.1 0 3.79 1.7 3.79 3.8z"/>
					<path id="&lt;Path&gt;" class="s5" d="m196.38 410.92c0 2.09-1.7 3.79-3.79 3.79-2.09 0-3.79-1.7-3.79-3.79 0-2.1 1.7-3.79 3.79-3.79 2.09 0 3.79 1.69 3.79 3.79z"/>
					<path id="&lt;Path&gt;" class="s5" d="m386.28 503.57c0 2.09-1.7 3.79-3.79 3.79-2.1 0-3.8-1.7-3.8-3.79 0-2.1 1.7-3.8 3.8-3.8 2.09 0 3.79 1.7 3.79 3.8z"/>
					<path id="&lt;Path&gt;" class="s5" d="m146.67 492.27c0 2.1-1.7 3.8-3.79 3.8-2.1 0-3.79-1.7-3.79-3.8 0-2.09 1.69-3.79 3.79-3.79 2.09 0 3.79 1.7 3.79 3.79z"/>
					<path id="&lt;Path&gt;" class="s5" d="m251.18 106.18c0 2.09-1.7 3.79-3.79 3.79-2.09 0-3.79-1.7-3.79-3.79 0-2.1 1.7-3.79 3.79-3.79 2.09 0 3.79 1.69 3.79 3.79z"/>
					<path id="&lt;Path&gt;" class="s5" d="m573.34 249.22c0 2.09-1.7 3.79-3.79 3.79-2.09 0-3.79-1.7-3.79-3.79 0-2.09 1.7-3.79 3.79-3.79 2.09 0 3.79 1.7 3.79 3.79z"/>
					<path id="&lt;Path&gt;" class="s5" d="m467.49 552.64c0 2.1-1.7 3.8-3.79 3.8-2.1 0-3.8-1.7-3.8-3.8 0-2.09 1.7-3.79 3.8-3.79 2.09 0 3.79 1.7 3.79 3.79z"/>
					<path id="&lt;Path&gt;" class="s5" d="m453.31 167.64c0 2.1-1.7 3.79-3.8 3.79-2.09 0-3.79-1.69-3.79-3.79 0-2.09 1.7-3.79 3.79-3.79 2.1 0 3.8 1.7 3.8 3.79z"/>
					<path id="&lt;Path&gt;" class="s5" d="m269.61 210.68c0 2.09-1.7 3.79-3.79 3.79-2.09 0-3.79-1.7-3.79-3.79 0-2.09 1.7-3.79 3.79-3.79 2.09 0 3.79 1.7 3.79 3.79z"/>
					<path id="&lt;Path&gt;" class="s5" d="m146.57 314.75c0 2.1-1.7 3.79-3.79 3.79-2.09 0-3.79-1.69-3.79-3.79 0-2.09 1.7-3.79 3.79-3.79 2.09 0 3.79 1.7 3.79 3.79z"/>
					<path id="&lt;Path&gt;" class="s5" d="m426.61 318.84c0 2.09-1.7 3.79-3.79 3.79-2.1 0-3.79-1.7-3.79-3.79 0-2.1 1.69-3.8 3.79-3.8 2.09 0 3.79 1.7 3.79 3.8z"/>
					<path id="&lt;Path&gt;" class="s5" d="m510.23 151.77c0 2.09-1.7 3.79-3.79 3.79-2.1 0-3.8-1.7-3.8-3.79 0-2.1 1.7-3.79 3.8-3.79 2.09 0 3.79 1.69 3.79 3.79z"/>
					<path id="&lt;Path&gt;" class="s5" d="m426.92 263.52c0 2.09-1.7 3.79-3.79 3.79-2.1 0-3.8-1.7-3.8-3.79 0-2.09 1.7-3.79 3.8-3.79 2.09 0 3.79 1.7 3.79 3.79z"/>
					<path id="&lt;Path&gt;" class="s5" d="m292.64 542.88c0 2.09-1.7 3.79-3.79 3.79-2.09 0-3.79-1.7-3.79-3.79 0-2.09 1.7-3.79 3.79-3.79 2.09 0 3.79 1.7 3.79 3.79z"/>
					<path id="&lt;Path&gt;" class="s5" d="m510.51 245.49c0 2.09-1.7 3.79-3.79 3.79-2.1 0-3.79-1.7-3.79-3.79 0-2.1 1.69-3.8 3.79-3.8 2.09 0 3.79 1.7 3.79 3.8z"/>
					<path id="&lt;Path&gt;" class="s5" d="m379.83 585.64c0 2.09-1.7 3.79-3.8 3.79-2.09 0-3.79-1.7-3.79-3.79 0-2.1 1.7-3.79 3.79-3.79 2.1 0 3.8 1.69 3.8 3.79z"/>
					<path id="&lt;Path&gt;" class="s5" d="m552.07 466.48c0 2.1-1.7 3.8-3.8 3.8-2.09 0-3.79-1.7-3.79-3.8 0-2.09 1.7-3.79 3.79-3.79 2.1 0 3.8 1.7 3.8 3.79z"/>
					<path id="&lt;Path&gt;" class="s5" d="m274.67 496.83c0 2.09-1.7 3.79-3.79 3.79-2.1 0-3.8-1.7-3.8-3.79 0-2.1 1.7-3.8 3.8-3.8 2.09 0 3.79 1.7 3.79 3.8z"/>
					<path id="&lt;Path&gt;" class="s5" d="m363.49 147.9c0 2.09-1.7 3.79-3.79 3.79-2.1 0-3.8-1.7-3.8-3.79 0-2.1 1.7-3.79 3.8-3.79 2.09 0 3.79 1.69 3.79 3.79z"/>
					<path id="&lt;Path&gt;" class="s5" d="m403.09 454.34c0 2.1-1.69 3.8-3.79 3.8-2.09 0-3.79-1.7-3.79-3.8 0-2.09 1.7-3.79 3.79-3.79 2.1 0 3.79 1.7 3.79 3.79z"/>
					<path id="&lt;Path&gt;" class="s5" d="m547.73 197.92c0 2.09-1.7 3.79-3.8 3.79-2.09 0-3.79-1.7-3.79-3.79 0-2.09 1.7-3.79 3.79-3.79 2.1 0 3.8 1.7 3.8 3.79z"/>
					<path id="&lt;Path&gt;" class="s5" d="m305.41 143.11c0 2.09-1.69 3.79-3.79 3.79-2.09 0-3.79-1.7-3.79-3.79 0-2.1 1.7-3.79 3.79-3.79 2.1 0 3.79 1.69 3.79 3.79z"/>
					<path id="&lt;Path&gt;" class="s5" d="m583.31 363.2c0 2.09-1.69 3.79-3.79 3.79-2.09 0-3.79-1.7-3.79-3.79 0-2.1 1.7-3.79 3.79-3.79 2.1 0 3.79 1.69 3.79 3.79z"/>
					<path id="&lt;Path&gt;" class="s5" d="m170.55 241.86c0 2.1-1.7 3.79-3.8 3.79-2.09 0-3.79-1.69-3.79-3.79 0-2.09 1.7-3.79 3.79-3.79 2.1 0 3.8 1.7 3.8 3.79z"/>
					<path id="&lt;Path&gt;" class="s5" d="m451.58 225.92c0 2.09-1.7 3.79-3.79 3.79-2.1 0-3.8-1.7-3.8-3.79 0-2.1 1.7-3.8 3.8-3.8 2.09 0 3.79 1.7 3.79 3.8z"/>
					<path id="&lt;Path&gt;" class="s5" d="m232.8 462.02c0 2.1-1.7 3.79-3.79 3.79-2.1 0-3.79-1.69-3.79-3.79 0-2.09 1.69-3.79 3.79-3.79 2.09 0 3.79 1.7 3.79 3.79z"/>
					<path id="&lt;Path&gt;" class="s5" d="m293.81 332.14c0 2.1-1.7 3.8-3.79 3.8-2.1 0-3.79-1.7-3.79-3.8 0-2.09 1.69-3.79 3.79-3.79 2.09 0 3.79 1.7 3.79 3.79z"/>
				</g>
				<g id="&lt;Group&gt;">
					<g id="&lt;Group&gt;">
						<g id="&lt;Group&gt;">
							<g id="&lt;Group&gt;">
								<path id="&lt;Path&gt;" class="s5" d="m330.83 867.95c-0.71 0-1.42-0.27-1.96-0.82l-47.85-47.84c-1.08-1.09-1.08-2.85 0-3.94 1.09-1.09 2.85-1.09 3.94 0l47.84 47.85c1.09 1.08 1.09 2.84 0 3.93-0.54 0.55-1.25 0.82-1.97 0.82z"/>
							</g>
							<g id="&lt;Group&gt;">
								<path id="&lt;Path&gt;" class="s5" d="m282.99 867.95c-0.71 0-1.42-0.27-1.97-0.82-1.09-1.09-1.09-2.85 0-3.93l47.85-47.85c1.08-1.09 2.85-1.09 3.93 0 1.09 1.09 1.09 2.85 0 3.94l-47.84 47.84c-0.54 0.55-1.26 0.82-1.97 0.82z"/>
							</g>
						</g>
					</g>
					<g id="&lt;Group&gt;">
						<g id="&lt;Group&gt;">
							<g id="&lt;Group&gt;">
								<path id="&lt;Path&gt;" class="s5" d="m2483.7 713.06c-0.71 0-1.42-0.27-1.96-0.81l-47.85-47.84c-1.09-1.09-1.09-2.85 0-3.94 1.09-1.09 2.85-1.09 3.94 0l47.84 47.84c1.09 1.09 1.09 2.85 0 3.94-0.54 0.54-1.25 0.81-1.97 0.81z"/>
							</g>
							<g id="&lt;Group&gt;">
								<path id="&lt;Path&gt;" class="s5" d="m2435.86 713.06c-0.71 0-1.42-0.27-1.97-0.81-1.09-1.09-1.09-2.85 0-3.94l47.85-47.84c1.08-1.09 2.84-1.09 3.93 0 1.09 1.09 1.09 2.85 0 3.94l-47.84 47.84c-0.55 0.54-1.26 0.81-1.97 0.81z"/>
							</g>
						</g>
					</g>
				</g>
				<g id="&lt;Group&gt;">
					<g id="&lt;Group&gt;">
						<g id="&lt;Group&gt;">
							<g id="&lt;Group&gt;">
								<path id="&lt;Compound Path&gt;" fill-rule="evenodd" class="s5" d="m724.96 356.06c-14.33 0-25.99-11.65-25.99-25.98 0-14.33 11.66-25.99 25.99-25.99 14.32 0 25.98 11.66 25.98 25.99 0 14.33-11.66 25.98-25.98 25.98zm0-46.4c-11.26 0-20.42 9.16-20.42 20.42 0 11.25 9.16 20.41 20.42 20.41 11.25 0 20.41-9.16 20.41-20.41 0-11.26-9.16-20.42-20.41-20.42z"/>
							</g>
						</g>
					</g>
					<g id="&lt;Group&gt;">
						<g id="&lt;Group&gt;">
							<g id="&lt;Group&gt;">
								<path id="&lt;Compound Path&gt;" fill-rule="evenodd" class="s5" d="m2645.39 1486.64c-14.33 0-25.98-11.66-25.98-25.98 0-14.33 11.65-25.99 25.98-25.99 14.33 0 25.99 11.66 25.99 25.99 0 14.32-11.66 25.98-25.99 25.98zm0-46.4c-11.25 0-20.41 9.16-20.41 20.42 0 11.25 9.16 20.41 20.41 20.41 11.26 0 20.42-9.16 20.42-20.41 0-11.26-9.16-20.42-20.42-20.42z"/>
							</g>
						</g>
					</g>
				</g>
				<g id="&lt;Group&gt;">
					<path id="&lt;Path&gt;" class="s5" d="m2098.76 1636.3l-5.47-1.05c14.97-77.94 77.01-146.8 158.06-175.42 73.31-25.89 160.72-19.96 239.82 16.28 68.86 31.54 131.4 84.26 185.88 156.7l-4.45 3.35c-53.91-71.69-115.74-123.84-183.75-154.99-77.8-35.64-163.68-41.5-235.64-16.09-79.23 27.98-139.85 95.19-154.45 171.22z"/>
				</g>
			</g>
		</g>
	</g>
</svg>